<?xml version="1.0" encoding="UTF-8"?>
<svg id="Layer_1" xmlns="http://www.w3.org/2000/svg" version="1.1" viewBox="0 0 90 45">
  <!-- Generator: Adobe Illustrator 29.0.1, SVG Export Plug-In . SVG Version: 2.1.0 Build 192)  -->
  <defs>
    <style>
      .st0 {
        fill: #142448;
      }

      .st1 {
        fill: #122466;
      }

      .st2 {
        fill: #111d3a;
      }

      .st3 {
        fill: #eb3025;
      }
    </style>
  </defs>
  <path class="st1" d="M24.37,7.61h.67c.75,0,1.35.62,1.35,1.38v6.6c-.02.33.1.66.34.89.32.23.71.34,1.1.3h.68v1.98h-.7c-.57.02-1.14-.07-1.69-.26-.41-.15-.77-.4-1.05-.73-.27-.34-.46-.74-.55-1.16-.11-.51-.16-1.03-.15-1.55v-7.45h0Z"/>
  <path class="st1" d="M34.54,16.78h-6.53v1.98h6.53v-1.98Z"/>
  <path class="st1" d="M37.37,11.94h.67v4.53c0,.14.11.22.33.26.34.04.69.06,1.03.06h.67v1.98h-.67c-.32-.01-.64-.07-.94-.17-.36-.11-.71-.29-1.01-.52-.24.2-.5.37-.79.49-.35.15-.73.22-1.11.21h-1.57v-1.98h1.14c.25.02.5-.06.68-.24.14-.17.22-.39.21-.6v-2.63c0-.76.6-1.37,1.35-1.37ZM34.43,21.04c0-.32.12-.62.34-.84.22-.23.53-.36.85-.35.65,0,1.17.54,1.17,1.19s-.53,1.19-1.17,1.19c-.31,0-.62-.12-.85-.35-.22-.22-.35-.53-.34-.84ZM37.16,21.04c0-.32.12-.63.35-.84.22-.23.53-.35.84-.35.65,0,1.17.54,1.17,1.19s-.53,1.19-1.17,1.19c-.31,0-.62-.12-.84-.35-.23-.22-.36-.52-.35-.84Z"/>
  <path class="st1" d="M39.45,16.78h7.4v-1.01c0-.32-.01-.64-.05-.95-.02-.26-.1-.5-.24-.73-.15-.22-.35-.38-.59-.46-.36-.12-.74-.17-1.13-.15-.48,0-.96.03-1.43.1-.11.01-.27.04-.44.07-.79.13-1.55-.39-1.72-1.19l-.07-.34,2.39-.46,1.36-.09c.6.03,1.2.1,1.8.21.45.12.87.35,1.21.68.32.34.55.75.68,1.2.16.57.23,1.17.22,1.76v1.47c.04.5-.1,1-.38,1.41-.38.36-.9.52-1.41.46h-7.59v-1.98h0Z"/>
  <path class="st1" d="M14.14,26.82c.77-.07,1.53.16,2.14.64.47.48.71,1.14.67,1.82v3.74c0,.57-.46,1.04-1.02,1.04h-.81v-4.82c0-.55-.33-.83-.98-.83-.27,0-.54.02-.81.07-.24.05-.48.12-.71.21v4.32c0,.57-.46,1.04-1.02,1.04h-.8v-11.02h.8c.56,0,1.02.47,1.02,1.04v3.01c.25-.09.5-.15.76-.2.25-.04.5-.07.76-.07"/>
  <path class="st1" d="M21.82,7.61c-.9,0-1.62.74-1.62,1.64v6.32c.02.34-.1.66-.34.9-.31.23-.71.35-1.1.31h-3.82c-.25,0-.51-.02-.76-.07-.24-.04-.47-.14-.68-.26-.21-.14-.37-.33-.48-.55-.13-.28-.19-.6-.18-.91,0,0,.13-1.08.13-1.13-.05-.85-.77-1.49-1.61-1.43-.07.25-.39,1.43-.44,1.72-.05.32-.08.65-.08.97,0,.48.08.96.24,1.41.16.44.42.83.75,1.16.36.35.8.62,1.27.79.59.21,1.21.31,1.83.3h3.84c.57.02,1.14-.07,1.69-.26.41-.15.77-.4,1.05-.73.27-.34.47-.74.55-1.17.11-.51.16-1.03.15-1.56v-7.43h-.41Z"/>
  <path class="st1" d="M15.03,11.18c-.09-.18-.13-.38-.13-.58-.02-.5.21-.97.62-1.24.19-.13.41-.23.63-.28.24-.06.48-.09.73-.09.22,0,.43.02.64.06.24.04.82.2.82.2l-.04.49h0c-.02.33-.28.57-.59.57,0,0-.71-.07-.81-.07-.22-.02-.44.02-.62.15-.17.13-.21.38-.08.55.05.07.12.12.2.14.16.06.33.1.5.1h.92c.29,0,.43.15.43.46v.79h-3.67v-.79c-.03-.22.11-.41.33-.44h.11"/>
  <path class="st1" d="M31.59,26.82l-1.77,5.15-2.11-5.15h-.42c-.56.02-1.01.5-1,1.07,0,.13.03.26.08.38l2.29,5.49c.07.19.25.31.46.3l-.37.76c-.04.08-.08.16-.13.23-.07.1-.15.2-.24.29-.1.1-.21.18-.33.25-.17.08-.35.12-.54.1-.38,0-.74-.06-1.09-.18l-.03.86c0,.55.44,1,.98,1,.49.02.97-.02,1.45-.12.36-.15.69-.39.94-.71.3-.38.55-.79.74-1.24.22-.5.46-1.11.71-1.82l1.87-5.09c.22-.61-.08-1.29-.68-1.51-.13-.05-.27-.07-.41-.07h-.39v.02Z"/>
  <path class="st1" d="M23.17,26.82l-1.77,5.15-2.11-5.15h-.42c-.56.02-1.01.5-1,1.07,0,.13.03.26.08.38l2.29,5.49c.07.19.25.31.46.3l-.38.76c-.04.08-.08.16-.13.23-.07.1-.15.2-.24.29-.1.1-.21.18-.33.25-.17.08-.35.12-.54.1-.37,0-.74-.06-1.09-.18l-.03.86c0,.55.44,1,.98,1,.49.02.97-.02,1.45-.12.36-.15.69-.39.94-.71.3-.38.54-.79.73-1.24.22-.5.46-1.11.71-1.82l1.87-5.09c.22-.61-.08-1.29-.68-1.51-.13-.05-.27-.07-.41-.07h-.39v.02Z"/>
  <path class="st1" d="M39.84,28.02c-.16-.31-.39-.58-.68-.78-.3-.2-.63-.34-.98-.41-.39-.09-.79-.13-1.19-.12-.36,0-.73.04-1.09.09-.3.05-.57.1-.82.17-.25.06-.5.13-.74.21v.57h.01c.01.52.42.92.93.93,0,0,1.29-.18,1.71-.19.36-.03.71.04,1.03.19.16.08.27.23.28.41v.25c-.46.04-1.09.11-1.92.21-.69.04-1.35.28-1.92.67-.47.39-.73.99-.68,1.61-.01.41.07.81.24,1.18.15.31.37.57.65.76.28.2.6.34.94.43.44.11.9.16,1.35.15.43,0,.85-.04,1.28-.12.34-.07.68-.17,1.01-.3.29-.12.57-.26.83-.42v-4.27c.01-.42-.07-.84-.25-1.21ZM38.3,32.59c-.42.12-.85.17-1.28.15-.41.03-.83-.05-1.2-.24-.21-.12-.35-.34-.36-.59-.01-.27.13-.53.38-.65.34-.17.71-.27,1.09-.28.47-.02.93-.06,1.38-.1v1.71Z"/>
  <path class="st1" d="M42.64,23.04h-.8v11.02h.56c.7,0,1.26-.58,1.26-1.29v-8.7c0-.57-.46-1.04-1.02-1.04Z"/>
  <path class="st1" d="M48.36,32.8l-2.69-2.62,2.24-2.15s.02-.02.03-.03l.02-.02c.11-.13.16-.29.17-.45,0-.38-.3-.7-.68-.7h-.68l-2.51,2.33c-.15.14-.29.29-.42.45-.12.16-.18.36-.17.57,0,.2.05.39.18.55.12.14.24.28.36.4l3.13,2.95h.64c.38,0,.69-.31.69-.7,0-.23-.11-.44-.3-.57"/>
  <path class="st3" d="M68.1,35.4v-17.72h-8.09c-2.39,0-4.33,1.97-4.33,4.4,0,1.24.52,2.43,1.43,3.27l10.98,10.06h0Z"/>
  <path class="st3" d="M74.25,17.69h-6.15V7.61h6.15c2.73,0,4.95,2.26,4.95,5.04s-2.22,5.04-4.95,5.04Z"/>
  <path class="st0" d="M72.73,24.21h-4.63v11.18c2.49,2.61,6.58,2.66,9.15.12,2.56-2.54,2.62-6.71.12-9.31-1.22-1.27-2.89-1.99-4.64-1.99ZM73.03,33.51c-1.47,0-2.66-1.21-2.66-2.71s1.19-2.71,2.66-2.71,2.66,1.21,2.66,2.71-1.19,2.71-2.66,2.71Z"/>
  <path class="st2" d="M68.69,24.21h-.59v11.18s.1.1.1.1l.5-11.28h0Z"/>
</svg>