<?xml version="1.0" encoding="UTF-8"?>
<svg id="Layer_1" xmlns="http://www.w3.org/2000/svg" version="1.1" viewBox="0 0 90 45">
  <!-- Generator: Adobe Illustrator 29.0.1, SVG Export Plug-In . SVG Version: 2.1.0 Build 192)  -->
  <defs>
    <style>
      .st0 {
        fill: #00a8ab;
      }

      .st1 {
        fill: #00529a;
      }
    </style>
  </defs>
  <path class="st0" d="M49.58,21.05s.04.03.08.03l-.11-.12s.03.05.03.09h0ZM36.32,15.52s-.04-.03-.09-.03l.11.12s-.02-.05-.02-.09h0ZM54.27,15.36c-.53-.02-.59.32-1.24.68.38-.19-.14.49-.66.63-.67.16-1.1.86-1.62,1.39-.38-.43-.76-.83-1.15-1.23.3-.29.63-.65.83-.86.29-.56-.26-.68-.3-.67-.54-.02-.59.32-1.24.68.17-.09.16,0,.04.14-.1-.11-.21-.22-.3-.33-.42-.48-.82-.95-1.2-1.42-.69-.86-1.48-1.5-2.11-2.41.09-.14.18-.28.27-.42h-.01c-.1.11-.21.21-.37.27.06-.03.08,0,.03.05-.01-.02-.03-.04-.04-.06.05-.09.13-.17.25-.19,0,0,.02-.05.03-.09.04-.02.06.01.09.02l.05-.08c-.08,0-.27.1-.27.1-.06.06-.13.13-.18.19-.01-.02-.02-.03-.03-.05-.26-.4-.91-.97-1.23-1.29-.55-.29-.67.26-.67.3-.03.54.31.59.67,1.26-.17-.33.32.02.54.46l-.1.09-.03.04s.01.03.03.03c-.02,0-.05.02-.08.03-.01.02-.02.03-.04.05.01-.01.02-.02.03-.04h.01s.04-.06.04-.06h.01s.01-.03.01-.03l-.26.24s-.03.04-.04.05c-.05.06-.1.14-.17.14l-.04.04h.01-.02s-.19.18-.19.18c-.13.12-.26.24-.39.35-.12.11-.23.21-.33.31-.59-.66-1.22-1.22-1.74-1.98.09-.14.18-.29.27-.42h-.01c-.1.11-.21.21-.37.27.06-.02.08,0,.03.05-.01-.02-.03-.04-.04-.06.06-.09.13-.17.25-.19,0,0,.02-.05.03-.09.04-.02.06.01.09.02l.05-.08c-.09.01-.27.1-.27.1-.06.06-.12.13-.18.19-.01-.02-.02-.03-.03-.05-.26-.4-.91-.97-1.23-1.29-.55-.3-.67.26-.67.3-.02.54.32.59.68,1.25-.17-.33.32.02.54.46l-.1.09-.03.04h0s.01.03.03.03c-.03.01-.05.02-.09.03-.01.02-.02.03-.04.05.01-.01.02-.02.03-.04h.01s.04-.06.04-.06v-.02s.02-.02.02-.02l-.26.24s-.03.04-.04.06c-.04.06-.1.14-.17.13l-.04.04h.02-.02s-.19.18-.19.18c-.13.11-.26.23-.39.35-.76.67-1.42,1.35-2.17,2.05-.16-.11-.32-.21-.49-.32-.05-.04-.09-.09-.12-.14.04.06.09.13.14.21.05.11.26.1.4.22.03.01-.04.08,0,.11-.06.06-.13.13-.21.18-.02.02-.03.03-.04.04-.01-.01-.02-.02-.03-.03.01.01.02.02.03.03-.45.41-.9.8-1.35,1.16-.13.11-.25.21-.37.31-.12-.1-.24-.18-.36-.26.12.11.23.19.33.28-.03.03-.06.05-.1.09-.01-.05-.02-.13-.06-.14-.09-.09-.19-.13-.31-.21-.05-.02.02-.1,0-.11-.15-.11-.35-.11-.4-.22-.05-.08-.1-.14-.14-.21-.03-.04-.06-.08-.1-.11l-.09-.05c-.22-.12-.45-.28-.66-.42h0c.12.11.21.22.27.38-.02-.06,0-.08.05-.03v.08c-.12-.08-.23-.14-.27-.29,0,0-.05-.02-.09-.03-.02-.04.01-.06.02-.09l-.08-.05c.01.09.1.27.1.27.27.27.52.52.76.78.03.01.06,0,.09.03,0,.03.01.06.03.09l.1.11.04.03h0s.03-.01.03-.03c0,.02.02.05.03.08.02.01.03.03.05.04-.01-.01-.02-.02-.04-.03h-.01s-.05-.05-.05-.05h-.02s-.02-.02-.02-.02l.24.26s.04.03.05.04c.06.05.14.1.14.17l.02.03c-.57.56-1.12,1.12-1.85,1.59-.4.26-.96.92-1.27,1.24-.29.56.26.68.3.67.54.03.59-.32,1.24-.68-.38.19.14-.49.66-.63.67-.16,1.1-.86,1.63-1.4.38.42.76.83,1.15,1.23-.3.29-.63.65-.82.86-.29.56.26.67.3.67.54.02.59-.32,1.24-.68-.17.09-.16,0-.04-.14.1.11.21.22.3.33.42.48.82.94,1.2,1.42.69.86,1.48,1.5,2.11,2.41-.09.14-.18.28-.27.42h.01c.1-.11.21-.21.37-.27-.06.03-.08,0-.03-.05.01.02.02.04.04.06-.06.1-.13.17-.25.21,0,0-.02.05-.03.09-.04.02-.06,0-.09-.02l-.05.06c.09,0,.27-.1.27-.1.06-.06.13-.13.18-.19.01.02.02.03.03.05.26.4.9.97,1.23,1.29.55.29.67-.27.67-.3.02-.54-.32-.59-.67-1.26.17.33-.32-.02-.54-.46l.1-.09.03-.04h0s-.01-.03-.03-.03c.02-.01.05-.02.08-.03.01-.01.02-.03.04-.05-.01.01-.02.03-.03.04h-.01s-.04.06-.04.06h-.01s-.01.03-.01.03l.26-.24s.03-.04.04-.05c.04-.06.1-.14.17-.14l.04-.04h-.01.02s.19-.19.19-.19c.13-.11.26-.23.39-.35.12-.1.23-.21.33-.3.59.66,1.22,1.22,1.74,1.98-.09.14-.18.28-.27.42h.01c.1-.11.21-.21.36-.26-.06.03-.08,0-.03-.05.01.02.02.04.04.06-.06.1-.13.17-.25.21,0,0-.02.05-.03.09-.04.02-.06-.01-.09-.02l-.05.06c.09-.01.27-.1.27-.1.06-.06.13-.13.18-.19.01.02.02.03.03.05.26.4.91.97,1.23,1.29.55.3.67-.26.67-.3.02-.54-.32-.59-.67-1.25.17.33-.32-.02-.55-.48l.1-.1.03-.04s-.01-.03-.03-.03c.03,0,.05-.02.08-.03.01-.02.02-.03.04-.05-.01.01-.02.02-.02.04h-.01s-.04.08-.04.08v.02s.24-.24.24-.24c.02-.02.03-.04.04-.05.04-.06.1-.14.17-.14l.04-.04h-.02.02s.19-.18.19-.18c.13-.12.26-.23.39-.35.76-.67,1.42-1.35,2.16-2.05.16.11.32.21.49.32.05.04.09.09.12.14-.04-.06-.09-.14-.14-.22-.05-.11-.26-.1-.4-.22-.02-.01.04-.08,0-.11.06-.06.13-.12.21-.18.02-.01.03-.03.05-.04.01.01.02.02.03.03-.01-.01-.02-.02-.03-.03.45-.41.9-.8,1.35-1.17.12-.11.25-.21.37-.31.12.1.24.18.36.26-.12-.11-.23-.19-.33-.28.03-.03.06-.05.1-.09.01.05.01.13.05.14.09.09.21.13.32.21.05.02-.02.1,0,.11.14.11.35.11.4.22.05.08.1.14.14.21.03.04.06.08.1.11l.09.05c.22.13.45.28.66.42h0c-.12-.11-.21-.22-.27-.38.03.06,0,.08-.05.03v-.09c.12.08.23.14.26.29,0,0,.06.02.09.03.02.04-.01.06-.02.1l.06.05c0-.09-.09-.27-.09-.27-.27-.27-.52-.52-.76-.78-.03,0-.06,0-.09-.03,0-.03-.02-.06-.02-.09l-.11-.11-.04-.03s-.03.01-.03.03c-.01-.02-.02-.05-.03-.08-.01-.01-.03-.02-.05-.04.01.01.03.02.04.03h.01s.05.05.05.05h.01s.02.02.02.02l-.23-.26s-.04-.03-.05-.04c-.08-.05-.14-.1-.13-.17l-.02-.03c.57-.56,1.12-1.12,1.85-1.59.4-.26.96-.92,1.27-1.24.28-.5-.27-.62-.31-.62h0ZM48.44,20.12s.06.04.1.06c-.01.01-.02.01-.02.02-.01-.01-.01-.03-.01-.04.01.02.01.04.01.05,0,0,0,.01-.01.01s-.03-.01-.06-.03v-.08h0ZM46.61,23.17c.04-.08.13-.13.24-.15-.04.11-.15.14-.24.15h0ZM43.78,21.98c.43-.41.85-.83,1.33-1.26s.94-.83,1.4-1.21c.13-.1.25-.21.37-.31.12.1.24.18.36.26-.12-.11-.23-.19-.33-.28.03-.03.06-.05.1-.09.01.05.01.12.05.14.09.09.21.13.31.21.05.02-.02.1,0,.11.14.11.35.11.4.22.04.08.1.14.14.21.03.04.06.08.1.11l.09.05c.11.05.21.13.31.19-.04.04-.08.09-.12.13-.01,0-.01.01-.01.01-.37.4-.75.81-1.16,1.22-.26.27-.42.57-.61.83-.15.17-.36.31-.49.44-.21.21-.36.42-.5.63.17-.21.29-.37.5-.59.13-.15,0,.21-.08.31-.02.05-.17.03-.19.1-.09.09-.13.21-.21.32-.02.05-.1-.03-.11,0-.02.02-.03.04-.04.06-.3-.66-1.1-1.1-1.58-1.72,0-.03-.02-.05-.04-.09h0ZM42.46,23.11c.04-.08.13-.13.24-.16-.05.11-.15.14-.24.16h0ZM37.75,19.96c.63-.19,1.05-.86,1.54-1.37.69.78,1.39,1.47,2.13,2.28.39.44.77.88,1.11,1.32-.05.09-.11.17-.17.26-.15.17-.36.31-.49.44-.21.21-.36.41-.49.63.17-.21.29-.37.5-.59.13-.15,0,.21-.08.31-.02.05-.17.03-.19.1-.09.09-.13.21-.21.32-.02.05-.1-.02-.11,0-.02.02-.03.04-.03.05-.3-.66-1.1-1.09-1.58-1.71-.13-.17-.31-.32-.49-.51-.45-.57-.95-1.06-1.46-1.53h0ZM37.33,16.43c.21.21.4.41.58.61.03,0,.06,0,.08.03s.02.05.03.09l.11.11.04.03h0s.03,0,.03-.03c.01.03.01.05.03.08.01.01.03.02.04.04-.01-.01-.03-.02-.03-.03-.01,0-.01-.01-.01-.01l-.05-.04h-.01s-.02-.02-.02-.02l.24.26s.04.03.05.04c.08.05.14.1.14.17l.02.02c-.52.5-1,1-1.62,1.44-.19-.18-.38-.38-.57-.57-.25-.25-.53-.4-.78-.57.11-.11.22-.23.33-.33.5-.39.93-.83,1.36-1.3h0ZM37.46,16.46s-.08-.04-.11-.06c.01-.01.02-.02.02-.02.01.01.01.02.02.04-.01-.02-.01-.04-.01-.05h.01s.03,0,.05.01v.09h.01ZM39.29,13.4c-.04.08-.13.14-.23.16.03-.11.13-.14.23-.16h0ZM42.12,14.59c-.43.41-.85.83-1.32,1.26-.48.43-.94.83-1.4,1.21-.13.11-.25.21-.37.31-.12-.1-.24-.18-.36-.26.12.11.23.19.33.28-.03.03-.06.06-.1.09-.01-.05-.01-.13-.05-.14-.09-.09-.21-.13-.32-.21-.05-.02.02-.1,0-.11-.15-.11-.35-.11-.41-.21-.04-.08-.1-.14-.13-.21-.03-.04-.06-.08-.1-.11l-.09-.05c-.11-.05-.21-.13-.31-.19.04-.04.08-.09.12-.13.01,0,.01-.01.01-.01.37-.4.75-.81,1.17-1.22.26-.27.42-.57.59-.83.15-.17.36-.31.49-.44.21-.21.36-.42.49-.63-.17.21-.29.37-.5.59-.14.15,0-.21.06-.31.02-.05.17-.03.19-.09.09-.09.13-.21.21-.32.02-.05.1.02.11,0s.03-.04.04-.06c.3.66,1.1,1.1,1.58,1.72.02.01.04.04.06.06h0ZM45.35,17.87c.25.25.53.4.78.57-.11.11-.22.23-.33.33-.96.78-1.67,1.7-2.57,2.6-.81-.96-1.75-1.69-2.66-2.65-.25-.25-.52-.4-.77-.57.11-.11.22-.23.33-.33.96-.78,1.66-1.7,2.57-2.6.79.95,1.74,1.67,2.65,2.65h0ZM43.44,13.48c-.04.08-.13.14-.23.16.03-.12.13-.15.23-.16h0ZM48.15,16.62c-.62.19-1.04.86-1.54,1.37-.69-.78-1.39-1.47-2.13-2.28-.4-.44-.77-.88-1.11-1.32.05-.09.11-.17.16-.26.15-.17.36-.31.49-.44.21-.21.36-.42.49-.63-.17.21-.29.37-.5.59-.14.15,0-.21.06-.31.02-.05.17-.03.19-.09.09-.09.13-.21.21-.32.02-.05.1.02.11,0s.02-.04.03-.06c.3.66,1.1,1.09,1.58,1.72.13.17.3.32.49.51.48.56.96,1.04,1.48,1.52h0ZM50.26,18.5c-.11.11-.22.23-.35.33-.5.41-.93.85-1.36,1.32-.21-.21-.4-.41-.58-.61-.03,0-.06,0-.09-.03,0-.03-.02-.06-.03-.09l-.1-.11-.04-.03s-.03.01-.03.03c-.01-.03-.02-.05-.04-.09-.01-.01-.03-.02-.04-.04.01.01.02.02.03.03h.01s.08.06.08.06h.02s-.24-.25-.24-.25c-.02-.02-.04-.03-.05-.04-.06-.05-.14-.1-.13-.17l-.02-.03c.52-.5,1-1,1.62-1.44.19.18.39.38.57.57.25.25.53.4.78.57h0ZM49.43,20.84h-.02s.04.02.04.02l-.02-.02h0ZM49.41,20.83l-.08-.05s.03.05.03.09c0-.02.01-.04.04-.03h0ZM36.47,15.74h.02s-.04-.02-.04-.02l.02.02h0ZM36.49,15.75l.06.05s-.02-.05-.03-.08c0,.02-.01.04-.03.02h0ZM47.11,9.83l.05-.08h0l-.05.08h0ZM46.74,10.1c.16-.06.27-.16.37-.27-.03-.01-.05-.04-.1-.02-.01.03-.03.09-.03.09-.14.03-.23.15-.29.27h.08c.05-.06.04-.1-.02-.06h0ZM46.4,10.81c.04-.05.09-.09.14-.12-.06.04-.13.09-.22.14-.1.06-.1.26-.21.41-.01.03-.09-.05-.11,0-.08.12-.12.24-.21.32-.02.05-.17.03-.19.09-.08.12-.21.46-.06.31.21-.23.32-.39.5-.59.12-.18.23-.37.36-.56h0ZM46.09,10.69s.03-.04.03-.09l-.12.11s.04-.01.09-.02h0ZM45.89,10.91s-.04,0-.03-.03l-.05.08s.06-.03.09-.04h0ZM45.86,10.87h0ZM45.87,10.84v.02s.02-.04.02-.04l-.02.02h0ZM42.96,9.76l.05-.08h0l-.05.08h0ZM42.59,10.03c.16-.06.27-.16.37-.27-.02-.01-.05-.04-.1-.02-.01.03-.03.09-.03.09-.14.03-.22.15-.29.27h.08c.05-.06.04-.1-.02-.06h0ZM42.25,10.75c.04-.05.09-.09.14-.12-.06.04-.13.09-.21.14-.11.05-.1.26-.21.41-.01.03-.09-.05-.11,0-.08.12-.12.24-.21.32-.02.05-.17.03-.19.1-.06.12-.21.46-.06.31.21-.23.31-.39.5-.59.11-.21.22-.39.35-.57h0ZM41.93,10.63s.03-.04.03-.09l-.12.11s.05-.02.09-.02h0ZM41.74,10.84s-.04-.01-.03-.03l-.04.06s.05-.03.08-.03h0ZM41.71,10.8h0ZM41.71,10.8l.03-.04-.02.02v.02h-.01ZM35.79,14.92v-.08c-.05-.05-.09-.03-.05.03-.06-.16-.15-.27-.27-.37-.01.02-.04.05-.02.09.02.01.09.03.09.03.02.14.14.22.26.29h0ZM35.39,14.44l.06.05h0s-.06-.05-.06-.05h0ZM32.37,15.65s-.01.04-.03.03l.08.05s-.03-.05-.04-.09h0ZM32.34,15.68l-.04-.03.02.02h.02ZM32.17,15.46s-.04-.03-.09-.03l.11.12s-.02-.05-.02-.09h0ZM33.12,15.93c.12.08.46.21.31.08-.23-.21-.39-.32-.59-.5-.18-.13-.37-.24-.56-.37-.04-.04-.09-.09-.12-.14.04.06.09.14.14.21.06.11.26.11.41.22.03.01-.05.09,0,.11.12.08.23.12.32.21.05.02.02.17.09.19h0ZM31.64,14.84v-.08c-.05-.05-.09-.03-.05.03-.06-.16-.16-.27-.27-.37-.01.03-.04.05-.02.1.03.01.09.03.09.03.02.14.14.21.26.28h0ZM31.24,14.36l.06.05h.01s-.08-.05-.08-.05h0ZM38.78,26.75l-.05.08h0l.05-.08h0ZM39.16,26.48c-.16.06-.27.16-.37.27.03.02.05.04.1.02.01-.03.03-.09.03-.09.14-.03.22-.15.29-.27h-.08c-.06.06-.04.1.02.06h0ZM39.49,25.76s-.09.09-.13.12c.06-.04.13-.09.21-.14.11-.06.1-.26.22-.41.01-.03.09.05.11,0,.08-.12.12-.24.21-.32.02-.05.17-.03.19-.1.08-.12.21-.46.08-.31-.21.23-.31.39-.49.59-.14.21-.25.39-.39.57h0ZM39.81,25.88s-.03.04-.03.08l.12-.12s-.05.04-.09.04h0ZM40.03,25.71h0l.05-.06s-.05.03-.08.03c.02,0,.03,0,.02.03h0ZM40.03,25.71l-.03.04.02-.02v-.02h.01ZM42.93,26.82l-.05.08h0l.05-.08h0ZM43.31,26.55c-.15.06-.27.16-.37.27.03.01.05.04.09.02.01-.03.03-.09.03-.09.14-.03.22-.15.29-.27h-.08c-.05.06-.03.1.03.06h0ZM43.65,25.84s-.09.09-.14.12c.06-.04.13-.09.21-.14.11-.06.11-.26.22-.41.01-.03.09.05.11,0,.08-.12.12-.23.21-.32.02-.05.17-.03.19-.1.08-.12.21-.46.06-.31-.21.23-.32.39-.5.59-.12.19-.23.38-.36.57h0ZM43.95,25.96s-.03.05-.03.09l.12-.11s-.05.01-.09.02h0ZM44.16,25.74s.04.01.03.03l.04-.08s-.05.03-.08.04h0ZM44.18,25.77l-.03.04.02-.02v-.02h.01ZM50.11,21.67v.09c.05.05.09.03.05-.03.06.15.15.27.27.37.01-.02.04-.05.02-.09-.03-.01-.09-.03-.09-.03-.03-.16-.14-.23-.26-.3h0ZM50.51,22.14l-.06-.05h0s.06.05.06.05h0ZM53.56,20.9h0l-.08-.05s.03.05.03.09c0-.03.01-.05.04-.03h0ZM53.56,20.9l.04.03-.02-.02h-.02ZM53.73,21.13s.04.03.09.03l-.11-.12s.02.05.02.09h0ZM52.78,20.64c-.12-.06-.46-.21-.31-.06.23.21.38.32.59.5.18.12.37.24.55.37.04.04.09.09.12.13-.04-.06-.09-.13-.14-.21-.06-.11-.26-.1-.4-.22-.02-.01.05-.09,0-.11-.12-.08-.23-.12-.31-.21-.06-.02-.04-.17-.1-.19h0ZM54.26,21.73v.08c.05.05.09.03.05-.03.06.16.16.27.27.37.01-.03.04-.05.02-.09-.03-.01-.09-.03-.09-.03-.03-.14-.14-.22-.26-.29h0ZM54.66,22.21l-.06-.05h0s.06.05.06.05h0Z"/>
  <path class="st1" d="M88.05,34.06c-.05.06-.46.37-.46.37-.68.44-.95.09-.52-.3.43-.4.26-.48.26-.48-.44-.21-.75.28-.75.28,0,0,.14-.03.29-.06s.23.02.23.02c-.77.71-.43.88-.43.88.62.29,1.11-.3,1.4-.59.27-.29-.02-.11-.02-.11h0ZM88.03,31.48l.11-.72c-1.3-.23-3.45-.91-4.63-.91s-1.05,1.82-.94,2.21c.02.06.04.16.06.27,0,0-.53-.24-.66-1.42,0-.03-.63-6.62-1.17-9.22l-.22.76s.3,1.26.45,3.31c.19,1.71.63,5.14.63,5.25.14,1.25.53,1.8,1.04,2.09.02.01.04.03.06.04.04.27.08.66.08.66.01.1.08.14.11,0,.03-.13.01-.57.01-.57.18.09.41.12.68.1.08,0,.13-.01.18-.02.42-.08.95-.28,1.58-.67,1.18-.73,2.63-1.16,2.63-1.16h0ZM86.84,31.2s-1.27.58-1.66.82c-.4.24-1.46.8-2.28.43,0,0-.1-.64-.15-.85s-.05-1.1.7-1.04,1.31.12,3.39.64h0ZM85.57,26.19c-.28.37.3.81.3.81.08-.08.11-.01.11-.01.23.22.44.9.46,1.03s.05.26.14.15c.09-.1.31-1.23.44-1.6.13-.37.59.06.59.06l.19-.42s-.26-.69-.62-.32-.56,1.58-.56,1.58l-.05.05s-.23-.8-.52-1.27c-.29-.45-.5-.05-.5-.05h0ZM83.43,26.41c.37.68.7,1.49.53,2.5-.03.21-.05.21,0,.21.17,0,.68-1.64-.45-3.55l-.08.85h0ZM87.9,23.11l.23-.36-5.47,2.11-.25.39,5.49-2.14h0ZM83.4,23.3l-.04-.06s-.36.59-.51-.02c-.15-.61.45-1.22.45-1.22,0,0,.15-.3-.06-.06-.21.23-1.02,1.49-.33,1.94.01.01.49.12.5-.57h0ZM80.78,30.56c-.54-.22-1.03.7-1.03.7-.14,0-.23.12-.4.42-.18.3-.49.79-1.18.79s-1.47-.45-1.47-.45c.08-.08.94-.48.94-.48l.24-.73c-1.92-.92-3.53.16-3.53.16l-.23.72c.82-.39,1.39.31,1.39.31,0,0-.82.76-1.86.58-1.31-.22-1.19-.8-1.72-1.33-.53-.54-1.17.15-1.39.53-.23.38-.57,1.1-.78,1.71-.25.73-.54.96-1.09.5-.53-.42-.44-2.04-.44-2.29s0-.59-.1-.25c-.09.35-.19,2.37.5,3.07.7.7,1.15,0,1.31-.28.15-.28.42-1.23.81-1.82.39-.58.84-.58,1.04-.24s.76,1.25,1.85,1.25,2.42-1.08,2.42-1.08c.94.67,1.51.94,2.21.94s1.25-1.22,1.25-1.22c0,0,.62.49,1.09.68.46.18.68-.27.75-.54.03-.27-.04-1.45-.58-1.66h0ZM76.23,31.65l-.46-.35c.46-.19,1.09-.02,1.09-.02l-.63.37h0ZM80.78,31.92c-.44-.06-.77-.45-.77-.45.69-.4.77.45.77.45h0ZM78.42,27.83c0-.35.69-.31.69-.31l.15-.37c-.48-.79-.66-.55-.85-.26-.19.29,0,.18,0,.18.49-.26.4.05.4.05-.41.1-.63.72-.54,1.08.1.37.31,2.04.31,2.28s.05.28.05.28c.13-.58-.22-2.58-.22-2.94h0ZM79.48,24.91l.16-.39s-.22-.65-.51-.3-.45,1.48-.45,1.48l-.04.05s-.18-.76-.42-1.2c-.24-.45-.4-.08-.4-.08-.23.36.24.76.24.76.06-.08.09-.01.09-.01.18.21.36.85.38.97s.04.25.11.15c.06-.1.26-1.17.37-1.5.11-.33.49.06.49.06h0ZM74.76,27.73c-.17-.63.51-1.26.51-1.26,0,0,.17-.31-.06-.08-.24.24-1.13,1.54-.38,2.01,0,0,.54.11.54-.59l-.04-.08s-.4.63-.56,0h0ZM71.14,27.84s-.13.3-.21.51c-.09.21.3.36.4.41s.37.19.37.19c0,0,.32-.57.27-.73-.06-.15-.59-.38-.71-.41-.11-.04-.12.03-.12.03h0ZM79.08,23.33l.37-.56-8.62,3.32-.4.61,8.65-3.36h0ZM69.99,27.89s-.16.46-.24.63c-.06.16.1.27.1.27,0,0,.41.27.53.35.13.06.18.16.37-.18.23-.41-.04-.58-.26-.68-.21-.11-.5-.38-.5-.38h0ZM70.5,23.06c-.89-.43-.77.51-.77.51.09.13-.08.23-.08.23-.59.67.42.72.42.72-.03.29-.69.84-1.4,1.36-.23-1.35-.42-2.45-.42-2.45l.3.27s.17.18.05-.13c-.11-.31-.53-1.23-.79-1.66l-.14.82s.12.13.19.55c.04.28.3,1.85.46,2.85-.75.52-1.45.94-1.45.94.17-.04.81-.32.81-.32.24-.11.46-.25.68-.39.06.37.1.63.1.63,0,0,.61,3.59.61,4.83,0,.86.25.39.23-.98,0-.58-.1-1.67-.21-2.33-.13-.76-.27-1.59-.4-2.37.95-.71,1.64-1.59,1.64-1.59l.55.05c.89.08.5-1.1-.4-1.53h0ZM70.38,23.99s-.4.22-.63-.15c0,0,.33-.67.61-.25,0,.01.09.3.02.4h0ZM71.22,24.23s-.12.09-.76-.13c0,0,.09-.37.19-.48,0,0,.4.15.56.61h0ZM66.6,23.46c-.16-.41-.78-1.61-.78-1.61l-.19.84s.13.09.19.59c.06.51.7,3.77.85,4.63.28,1.61.29,1.56.35,2.09,0,0-.31.56-.92.63s-.95-.06-1.32-.44c0,0,.78-.48.55-1.31-.23-.83-.61-1.42-1.16-1.16-.63.28-.11,2.07-.02,2.25,0,0-.73.52-2.1.78.39-.26.75-.58.95-.97.38-.72-.05-1.34-.56-1.58-.51-.24-1.58-.68-2.81,1.21-.32.5-.54.9-.69,1.22-.32-.15-.48-.41-.55-.59.19-.32.23-.55.01-.39,0,0-.79.77-1.56.83-.78.06-1.13-.23-1.4-.92-.26-.69-.88-.89-1.46.27-.58,1.15-.28,1.86-.28,1.86,0,0-.81.01-1.9.84s-2.39,2.07-3.14,1.54.49-2.38,1.62-3.52c.09-.09.14-.15.19-.21.21-.05.45-.24.46-.79l-.06-.1s-.54.84-.77-.02c-.23-.85.69-1.73.69-1.73,0,0,.23-.42-.09-.1-.32.32-1.54,2.11-.52,2.74,0,0,.04.01.1.01-.41.36-1.07,1.06-1.45,1.76-.75,1.37-.85,2.28.03,2.67.85.38,2.42-1.09,2.83-1.39.41-.3,1.57-1.05,2.18-.89.63.16,1.65,1.2,1.65,1.2l.18-.91s-.56-.53-1.07-.9c-.51-.37-1.05-.94-.64-1.57s1.07-.77,1.25.1c.17.88,1.13,1.05,1.85.78.4-.14.76-.46,1-.79.08.39.37.71.56.89-.12.41-.06.56-.06.56.13-.3.23-.43.23-.43.26.14.53.18.8.17.89.06,3.13.09,4.75-1.13,0,0,.52,1.16,1.56.97,1.04-.17,1.49-1.22,1.26-2.65s-.99-5.51-.99-5.51l.28.28s.26.28.09-.13h0ZM59.25,30.77s.77-1.47,1.49-1.77c.72-.3,1.35-.26,2.02.53,0,0-1.53,1.53-3.51,1.24h0ZM64.47,29.75c-.21-.32-.44-1.06-.12-1.24.46-.29.76.65.76.65-.17.32-.64.59-.64.59h0ZM65.02,26.1s.32-.58.26-.73c-.06-.15-.59-.38-.71-.41s-.12.03-.12.03c0,0-.13.3-.21.51-.09.21.3.36.4.41.1.05.38.19.38.19h0ZM63.3,25.05s-.16.45-.23.63c-.08.16.1.27.1.27,0,0,.41.27.53.35.13.06.18.16.38-.17.23-.41-.04-.58-.26-.69-.24-.11-.52-.38-.52-.38h0ZM58.15,27.35c-.17-.63.51-1.26.51-1.26,0,0,.17-.3-.06-.06-.24.24-1.12,1.54-.38,2.01,0,0,.54.12.55-.59l-.04-.06s-.4.59-.57-.02h0ZM64.73,22.54l.37-.56-8.62,3.32-.39.62,8.64-3.37h0ZM56.38,23.61l-.04-.06s-.36.59-.51-.02c-.15-.61.45-1.22.45-1.22,0,0,.15-.3-.05-.06-.22.23-1.02,1.5-.33,1.94,0,0,.49.12.49-.57h0ZM55.46,25.33c-.1-.04-1.34-.12-1.37-.1-.03.02-.3.58-.38.78s0,.17.05.09c.05-.1.1-.06.1-.06.23-.08.98.05.98.05-.09.12-.73.54-.99.69s-.05.15-.05.15c1.45-.15,1.76-1.56,1.66-1.6h0ZM51.82,26.36c0-.4.79-.36.79-.36l.18-.42c-.54-.91-.76-.63-.97-.29s0,.21,0,.21c.55-.29.45.06.45.06-.46.11-.72.82-.62,1.24s.37,2.34.37,2.61.05.31.05.31c.13-.69-.26-2.98-.26-3.37h0ZM53.02,23.01l.18-.45s-.24-.73-.57-.35c-.33.39-.53,1.7-.53,1.7l-.04.06s-.21-.85-.49-1.37c-.27-.51-.46-.09-.46-.09-.25.4.28.86.28.86.08-.09.11-.02.11-.02.21.23.41.97.43,1.11s.04.28.13.16c.08-.11.29-1.33.41-1.72.12-.37.55.1.55.1h0ZM56.36,34.03c-.06.16.1.27.1.27,0,0,.41.27.53.35.13.08.18.16.37-.18.23-.41-.04-.57-.27-.69-.22-.11-.51-.38-.51-.38,0,0-.15.46-.22.64h0ZM57.74,33.35s-.13.3-.21.51c-.1.25.61.51.78.59,0,0,.32-.58.26-.73-.06-.15-.59-.38-.71-.41-.12-.03-.12.04-.12.04h0ZM59.19,34.59l-.17.27,3.72-1.45.16-.25-3.71,1.43h0ZM63.7,32.85c-.23.36.24.76.24.76.06-.08.09-.02.09-.02.18.21.36.85.38.97s.04.24.11.14.26-1.16.37-1.5c.1-.35.49.06.49.06l.16-.39s-.22-.65-.51-.3-.45,1.49-.45,1.49l-.04.05s-.18-.75-.42-1.2c-.24-.44-.4-.06-.4-.06h0ZM67.27,32.87c-.21.23-1.02,1.5-.33,1.96,0,0,.49.11.5-.57l-.04-.06s-.36.59-.51-.02c-.15-.61.46-1.22.46-1.22,0,0,.14-.31-.08-.08h0ZM77.85,34.56l-.17.27,3.8-1.48.16-.25-3.79,1.46h0ZM84.73,33.67s-.13.3-.21.51c-.09.21.3.36.4.4.1.05.37.19.37.19,0,0,.32-.57.27-.73-.06-.15-.59-.38-.71-.41-.12-.03-.12.04-.12.04h0Z"/>
  <path class="st1" d="M40.31,34.08c-.08-.17-.11-.56-.11-1.17v-2.5h-1.66v.18h.63v2.07c-.27.51-.58.76-.94.76-.14,0-.24-.04-.27-.12-.03-.08-.05-.29-.05-.64v-2.26h-1.64v.18h.64v1.69c0,.49.05.81.15.96.17.27.49.41.93.41s.85-.19,1.18-.58v.89c0,.45-.03.75-.1.86-.1.19-.28.3-.54.3-.21,0-.41-.06-.63-.19s-.36-.27-.42-.41l-.09-.05-.29.41c.33.29.76.43,1.26.43.85-.02,1.49-.42,1.96-1.23h0ZM35.07,33.13s-.01-.12-.01-.46v-2.06c.41,0,.68.15.81.45h.18v-.64h-.98v-3.28h-.99v3.28h-.67v.18h.67v1.99c0,.41.05.68.15.8.16.19.42.29.8.29s.73-.16,1.04-.49l-.1-.1c-.26.25-.48.37-.66.37-.14,0-.22-.12-.24-.33h0ZM30.88,33.6h2.3v-.18h-.66v-2.82h.28v-.17h-1.92v.18h.64v2.82h-.64v.17h0ZM32.46,27.49h-.81c.27.78.3,1.6.3,2.42h.19c0-.81.03-1.64.31-2.42h0ZM30.7,27.15h1.66v-.18h-.66v-1.96c0-.35-.09-.62-.27-.82-.18-.22-.41-.31-.71-.31-.49,0-.89.3-1.23.92-.11-.62-.43-.92-.98-.92-.45,0-.85.29-1.21.86v-.77h-1.64v.18h.64v2.81h-.64v.18h2.3v-.18h-.66v-1.7c.1-.32.24-.58.43-.79.25-.27.45-.4.62-.4.1,0,.14.13.14.39v2.67h1.64v-.17h-.64v-1.75c.14-.32.31-.58.51-.81.19-.22.38-.32.52-.32.12,0,.17.13.17.39v2.68h.01ZM23.07,27.15h2.3v-.18h-.66v-2.81h.28v-.18h-1.92v.18h.64v2.81h-.64v.18h0ZM24.66,21.05h-.81c.27.78.3,1.6.3,2.42h.18c0-.82.04-1.64.32-2.42h0ZM22.35,26.97c.24-.17.36-.41.36-.7,0-.39-.31-.76-.94-1.09-.35-.18-.57-.32-.68-.42s-.16-.22-.16-.36c0-.25.14-.38.41-.38.3,0,.59.21.89.61v.32h.19l-.03-1.24h-.16v.33c-.26-.12-.56-.17-.91-.17-.38,0-.68.09-.91.26-.24.17-.36.4-.36.68,0,.38.25.7.76.97.43.24.71.42.84.53s.19.24.19.38c0,.24-.15.36-.44.36-.33,0-.69-.17-1.08-.52v-.37h-.19v1.13h.19v-.29c.36.15.72.23,1.08.23.4,0,.71-.09.95-.26h0ZM19.13,26.97c.24-.17.36-.41.36-.7,0-.39-.31-.76-.94-1.09-.35-.18-.57-.32-.68-.42s-.16-.22-.16-.36c0-.25.14-.38.41-.38.3,0,.59.21.89.61v.32h.18l-.03-1.24h-.15v.33c-.26-.12-.56-.17-.92-.17s-.68.09-.91.26c-.24.17-.36.4-.36.68,0,.38.25.7.76.97.43.24.71.42.84.53s.19.24.19.38c0,.24-.15.36-.44.36-.33,0-.69-.17-1.08-.52v-.37h-.19v1.13h.19v-.29c.36.15.72.23,1.08.23.4,0,.72-.09.96-.26h0ZM16.54,26.68l-.14-.1c-.23.27-.42.41-.57.41-.12,0-.18-.18-.18-.56v-1.23c0-.32-.03-.56-.1-.71-.18-.41-.63-.62-1.34-.62-.45,0-.91.08-1.35.24l-.04.61h.14c.27-.44.72-.66,1.39-.66.09,0,.18.02.29.05v.83c-.59-.19-1.26-.1-1.74.31-.48.41-.71,1.23-.19,1.72.19.17.44.27.77.27.42,0,.81-.18,1.18-.56.13.38.4.56.83.56.42-.01.77-.19,1.06-.56h0ZM14.65,26.39c-.18.27-.56.63-.91.63-.13,0-.21-.14-.24-.41.01.08-.11-1,.1-1.42.14-.3.81-.14,1.04-.06v1.26h.01ZM12.58,30.69c-.21-.25-.46-.38-.79-.38-.43,0-.82.28-1.18.85v-.76h-1.64v.18h.64v2.82h-.64v.18h2.3v-.18h-.66v-1.8c.32-.71.66-1.08,1-1.08.15,0,.22.16.22.5v2.57h1.65v-.18h-.62v-1.74c.01-.4-.09-.72-.29-.98h0ZM10.31,26.29c.82-.9,1.23-2.09,1.23-3.57,0-1.29-.32-2.37-.97-3.24-.65-.86-1.45-1.31-2.41-1.31-.91,0-1.64.29-2.23.89-.42.43-.77.98-1.02,1.65-.25.67-.38,1.36-.38,2.06,0,1.37.42,2.53,1.26,3.47.29.32.67.61,1.13.82-.31.08-.76.33-1.31.75l.13.15c.53-.41,1.06-.56,1.72-.49.03.61.05,1.25.05,1.99,0,1.61-.1,2.6-.3,2.99-.17.35-.44.62-.8.81-.36.19-.75.29-1.18.29-.63,0-1.04-.19-1.24-.59-.13-.26-.19-.97-.19-2.13v-5.9h.83v-.18H1.82v.18h.83v5.89c0,.63.05,1.1.15,1.43.1.31.28.61.54.84.48.43,1.11.65,1.91.65.62,0,1.13-.15,1.56-.46.42-.31.69-.73.8-1.27.06-.31.12-1.21.16-2.68.02-.66.04-1.23.08-1.76.49.14.92.41,1.3.84l-.17.17.11.14c.89-.72,1.67-1.24,2.39-1.56l-.06-.19c-.49.22-.94.5-1.39.79-.43-.32-.78-.52-1.04-.62.56-.22,1-.5,1.34-.85h0ZM10.13,22.28c0,1.98-.11,3.25-.32,3.81s-.52.76-1.09.92c-.28-.09-.53-.14-.82-.13.06-.82.14-1.48.25-1.94h.89v-.18h-2.66v.18h.82c.12.53.21,1.19.27,1.99-.09.01-.15.02-.25.03-.3-.09-.56-.25-.75-.48-.35-.43-.53-1.54-.53-3.36,0-.52.02-1.15.08-1.88.04-.73.1-1.2.14-1.42.11-.46.33-.82.68-1.08s.78-.39,1.3-.39c.79,0,1.34.3,1.64.92.24.48.36,1.47.36,3h0ZM14.97,29.91c0-.82.04-1.64.31-2.42h-.81c.27.78.3,1.6.3,2.42h.19ZM15.62,30.42h-1.91v.18h.64v2.82h-.64v.18h2.3v-.18h-.66v-2.82h.27v-.18h0ZM18.21,30.42h-2.14v.18h.52l1.62,3.19.51-1.13c.42-.95.77-1.63,1.05-2.05h.53v-.18h-1.57v.18h.4c0,.57-.17,1.18-.49,1.8l-.94-1.8h.52v-.18h-.01ZM21.05,30.81c-.35.33-.52.73-.52,1.21s.17.88.51,1.19.77.46,1.29.46c.58,0,1.13-.21,1.64-.62v-.4h-.11c-.41.55-.92.83-1.52.83-.28,0-.48-.08-.57-.24s-.14-.49-.14-.96c0-.21,0-.37.01-.51h2.24c-.01-.46-.16-.83-.43-1.09-.27-.26-.64-.39-1.11-.39-.5.01-.92.17-1.27.51h0ZM21.64,31.61v-.19c.03-.35.11-.58.22-.71.12-.14.31-.21.58-.21.54,0,.81.32.81.96,0,.05-.01.11-.01.15h-1.6ZM25.87,30.42h-1.64v.18h.64v2.82h-.64v.18h2.52v-.18h-.89v-1.11c0-.49.04-.83.12-1.04.14-.36.33-.54.58-.54.28,0,.49.21.61.61.03.11.05.27.05.5h.19v-1.72h-.19v.37c-.17-.04-.3-.06-.4-.06-.38,0-.7.22-.95.65v-.65h0ZM29.44,32.75c.13.11.19.24.19.38,0,.24-.15.36-.44.36-.33,0-.69-.17-1.08-.52v-.37h-.19v1.13h.19v-.29c.36.15.72.23,1.08.23.4,0,.72-.09.95-.26.24-.17.35-.41.35-.7,0-.4-.31-.76-.93-1.09-.35-.18-.57-.32-.68-.42s-.16-.22-.16-.36c0-.26.14-.38.41-.38.3,0,.59.21.89.61v.32h.18l-.03-1.25h-.14v.33c-.26-.12-.56-.17-.91-.17-.38,0-.68.09-.92.26-.24.17-.36.4-.36.68,0,.37.25.69.76.97.43.26.71.43.84.54h0Z"/>
  <polygon class="st1" points="41.98 17.3 43.93 17.3 43.93 19.26 41.98 19.26 41.98 17.3"/>
</svg>