<?xml version="1.0" encoding="UTF-8"?>
<svg id="Layer_1" xmlns="http://www.w3.org/2000/svg" version="1.1" viewBox="0 0 90 45">
  <!-- Generator: Adobe Illustrator 29.0.1, SVG Export Plug-In . SVG Version: 2.1.0 Build 192)  -->
  <defs>
    <style>
      .st0 {
        fill: #1f4dbc;
      }

      .st1 {
        fill: #4768ba;
      }

      .st2 {
        fill: #0c1e62;
      }

      .st3 {
        fill: #0b1d62;
      }

      .st4 {
        fill: #132467;
      }

      .st5 {
        fill: #03bab4;
      }

      .st6 {
        fill: #1c4bba;
      }

      .st7 {
        fill: #0f2064;
      }

      .st8 {
        fill: #02b9b4;
      }

      .st9 {
        fill: #1b49b9;
      }

      .st10 {
        fill: #c2d60d;
      }
    </style>
  </defs>
  <g>
    <path class="st9" d="M20.53,20.21c-1.29,1.37-2.6,2.74-3.87,4.13-.2.21-.13.57-.17.62-.95,1.29-3.92,3.82-5.26,5.37-.14.16-.85.99-.88,1.05-.17.39.36.22.52.26l-.18.35c-.23,0-.47,0-.7,0,.1-.53-.27-.34-.61-.35-1.49-.06-2.99.04-4.48,0,.04-.31,0-.72,0-1.05l4.74.88c.04-.25-.02-.47-.09-.7-.48-1.77-1.54-3.55-2.19-5.27-.02-.05.02-.12,0-.18,1.64-.48,3.25-1.44,4.74-2.29.15.36.93,1.93,1.14,2.11.59.52,1.48.5,1.88-.23.72-1.13,2.07-6.13,2.82-6.75.44-.37,1.25-.29,1.7.04.62.45.62,1.43.88,2.02Z"/>
    <path class="st2" d="M16.49,24.96l3.68,3.52c-1,.88-2.1,2.03-3.16,2.99-.17.15-.39.17-.35.53-1.58,0-3.16,0-4.74,0-.27-.25-.7-.27-1.05-.35-.17-.04-.7.13-.52-.26.03-.06.74-.89.88-1.05,1.34-1.55,4.31-4.08,5.26-5.37Z"/>
    <path class="st8" d="M22.98,26.37c-.87.52-1.61,1.27-2.37,1.94-.15.13-.39.14-.43.17l-3.68-3.52s-.03-.4.17-.62c1.27-1.39,2.58-2.76,3.87-4.13.83,1.89,2.05,4.15,2.46,6.15Z"/>
    <path class="st5" d="M17.54,14.06c-.41,1.1-.77,2.23-1.23,3.34l-3.68,1.93c-.9-1.97-1.72-3.94-2.46-5.98h.18l7.19.7Z"/>
    <path class="st7" d="M12.11,23.03c-1.49.85-3.1,1.8-4.74,2.29-.28-.74-.45-1.61-.88-2.29.36-.95,1.35-4.59,2.15-4.97.7-.33,1.32-.15,1.75.45.77,1.07,1.2,3.31,1.72,4.52Z"/>
    <path class="st6" d="M17.54,14.06l-7.19-.7,3.16-3.16c.91-.01,3.9-.16,4.48.17,1.47.83-.08,2.73-.45,3.7Z"/>
    <path class="st2" d="M7.37,25.49c.65,1.72,1.71,3.5,2.19,5.27.06.24.12.46.09.7l-4.74-.88c.02-1.42-.08-2.66.18-4.04l2.28-1.05Z"/>
    <path class="st9" d="M23.16,31.64l-6.14-.18c1.06-.95,2.16-2.11,3.16-2.99.04-.04.28-.04.43-.17.76-.67,1.5-1.41,2.37-1.94.37,1.82-.06,3.58.18,5.27Z"/>
    <path class="st4" d="M17.89,33.05l5.26,1.05c-.08.57-.43.65-.96.71-2.51.29-6.22.01-8.86,0l1.75-1.76c.93,0,1.87,0,2.81,0Z"/>
    <path class="st0" d="M10.53,33.05l.53,1.76c-1.11,0-5.05.2-5.75-.13-.63-.3-.34-1.04-.39-1.63,1.87,0,3.75.01,5.61,0Z"/>
    <path class="st10" d="M13.51,10.2l-3.16,3.16h-.18c-.29-.81-1.27-2.09-.35-2.89.54-.46,2.84-.26,3.68-.27Z"/>
    <path class="st4" d="M12.63,19.34l3.68-1.93c-.49,1.19-1.16,4.54-3.05,3.32-.54-.35-.46-1-.63-1.39Z"/>
    <path class="st5" d="M15.09,33.05l-1.75,1.76c-.76,0-1.52,0-2.28,0l-.53-1.76c1.52,0,3.04,0,4.56,0Z"/>
    <path class="st5" d="M7.37,25.31c.02.05-.02.12,0,.18l-2.28,1.05c.28-1.53.9-2.22,1.4-3.52.43.68.6,1.55.88,2.29Z"/>
    <path class="st9" d="M17.89,33.05c1.75,0,3.51,0,5.26,0-.03.34.05.73,0,1.06l-5.26-1.05Z"/>
    <path class="st1" d="M23.16,31.64s.25.13.17.35c-2.22,0-4.45,0-6.67,0-.04-.36.18-.38.35-.53l6.14.18Z"/>
    <path class="st1" d="M4.91,31.64c1.49.04,2.99-.06,4.48,0,.34.01.7-.18.61.35-1.75,0-3.51,0-5.26,0-.08-.22.17-.33.17-.35Z"/>
    <path class="st1" d="M11.93,31.99c-.41,0-.82,0-1.23,0l.18-.35c.35.08.78.1,1.05.35Z"/>
  </g>
  <g>
    <path class="st3" d="M32.67,18l2.85,6.81,2.86-6.81h.87v7.72h-.65v-3.36l.05-3.45-2.87,6.81h-.5l-2.86-6.78.05,3.4v3.38h-.65v-7.72h.86Z"/>
    <path class="st3" d="M47.99,22.28c0,.71-.12,1.33-.37,1.87-.25.54-.6.95-1.05,1.24-.46.29-.98.43-1.58.43-.9,0-1.63-.32-2.18-.97-.55-.65-.83-1.52-.83-2.61v-.79c0-.7.12-1.33.37-1.87s.6-.96,1.06-1.25.98-.44,1.57-.44,1.12.14,1.57.43c.45.29.8.69,1.05,1.21s.38,1.13.39,1.82v.92ZM47.34,21.44c0-.93-.21-1.66-.63-2.18-.42-.53-1-.79-1.73-.79s-1.29.26-1.71.79-.64,1.27-.64,2.21v.81c0,.92.21,1.64.64,2.18.42.54,1,.8,1.73.8s1.31-.26,1.73-.79c.41-.53.62-1.26.62-2.21v-.82Z"/>
    <path class="st3" d="M52.75,22.21l2.36-4.21h.75l-2.79,4.81v2.91h-.65v-2.91l-2.78-4.81h.77l2.34,4.21Z"/>
    <path class="st3" d="M61.74,23.55h-3.5l-.79,2.17h-.68l2.92-7.72h.62l2.92,7.72h-.68l-.8-2.17ZM58.44,23h3.09l-1.55-4.2-1.55,4.2Z"/>
    <path class="st3" d="M69.81,23.82c0-.43-.15-.77-.45-1.02-.3-.25-.85-.49-1.65-.71s-1.38-.47-1.75-.73c-.52-.37-.79-.87-.79-1.47s.24-1.07.73-1.44c.49-.37,1.11-.55,1.86-.55.51,0,.97.1,1.38.3.4.2.72.47.94.83s.33.75.33,1.18h-.66c0-.53-.18-.95-.54-1.27s-.84-.48-1.45-.48-1.06.13-1.41.4-.53.61-.53,1.03c0,.39.16.71.47.96.31.25.82.47,1.51.66.69.19,1.22.39,1.58.59.36.2.62.45.81.73.18.28.27.62.27,1,0,.61-.24,1.09-.73,1.46-.49.37-1.13.55-1.92.55-.54,0-1.04-.1-1.5-.29s-.8-.47-1.03-.82c-.24-.35-.35-.75-.35-1.2h.65c0,.54.2.97.61,1.29.41.31.95.47,1.62.47.6,0,1.08-.13,1.45-.4.36-.27.55-.62.55-1.05Z"/>
    <path class="st3" d="M77.12,23.55h-3.5l-.79,2.17h-.68l2.92-7.72h.62l2.92,7.72h-.68l-.8-2.17ZM73.82,23h3.09l-1.55-4.2-1.55,4.2Z"/>
    <path class="st3" d="M83.71,22.5h-2.24v3.22h-.66v-7.72h2.51c.82,0,1.47.2,1.93.6s.69.96.69,1.67c0,.49-.15.93-.43,1.31-.29.38-.68.64-1.17.78l1.93,3.29v.07h-.69l-1.87-3.22ZM81.46,21.95h2c.55,0,.99-.16,1.32-.47.33-.31.5-.72.5-1.21,0-.55-.17-.97-.52-1.27-.35-.3-.83-.45-1.46-.45h-1.84v3.4Z"/>
  </g>
</svg>