<?xml version="1.0" encoding="UTF-8"?>
<svg id="Layer_1" xmlns="http://www.w3.org/2000/svg" version="1.1" viewBox="0 0 90 45">
  <!-- Generator: Adobe Illustrator 29.0.1, SVG Export Plug-In . SVG Version: 2.1.0 Build 192)  -->
  <defs>
    <style>
      .st0 {
        fill: #1c1a47;
      }
    </style>
  </defs>
  <g>
    <path class="st0" d="M24.44,27.58c-.43.09-.8.41-.98.86-.2.48-.15,1.02.11,1.4.04.06.11.12.25.25.04.03.07.07.1.09v2.52h1.81v-2.53s.02-.02.03-.03c.16-.16.43-.42.5-.7.13-.58,0-1.12-.37-1.49-.36-.36-.88-.51-1.45-.39Z"/>
    <path class="st0" d="M72.74,16.38h0c0,.08.04,8.27,0,9.05,0,.03,0,.06,0,.11l-.02.49h3.56v-9.64h-3.54Z"/>
    <path class="st0" d="M66.38,16.38c.02,2.72.04,8.49,0,9.05,0,.03,0,.06,0,.1l-.02.49h3.56v-9.64h-3.54,0Z"/>
    <path class="st0" d="M60.03,22.58h-2.11c-1.69,0-2.95-.42-3.75-1.25-.81-.83-1.22-2.13-1.22-3.86v-1.09h-3.54v1.09c0,3.44-1.64,5.11-5.01,5.11h-2.17V7.47h-3.54v18.55h5.71c1.71,0,3.2-.32,4.45-.95,1.02-.51,1.67-1.2,2.26-2.11,1.31,1.98,3.69,3.06,6.81,3.06h5.65v-9.64h-3.54v6.2Z"/>
    <rect class="st0" x="47.22" y="27.54" width="3.55" height="3.55" rx="1.77" ry="1.77"/>
    <rect class="st0" x="51.49" y="27.54" width="3.55" height="3.55" rx="1.77" ry="1.77"/>
    <path class="st0" d="M35.42,22.58c-.69,0-1.04-.14-1.2-.26-.23-.16-.43-.48-.56-.94-.16-.51-.35-1.37-.61-2.78-.39-2.26-.97-4.16-1.73-5.64-.77-1.5-1.8-2.7-3.06-3.56-1.09-.73-2.3-1.27-3.63-1.62-.31-.08-.61-.15-.96-.22-.16-.02-.32-.03-.47-.05h-.07c-.11-.02-.22-.03-.31-.03-.11,0-.21-.01-.32-.02-.87-.05-1.69-.03-2.45.06-1.51.17-2.51.58-3.08.89-.34.19-.56.35-.68.46-.2.13-.2.41-.2,3.4v1.02l.78-.67c.38-.33.8-.61,1.25-.84.76-.39,1.62-.65,2.55-.76.5-.06,1-.08,1.5-.05h.16s.06.01.12.02c.04,0,.09,0,.14,0,.26.02.51.06.76.11h.05s.04.02.1.03c.98.24,1.87.62,2.64,1.14.87.58,1.58,1.4,2.1,2.45.54,1.08.98,2.57,1.31,4.44.09.49.14.8.16,1.05.18.99.34,1.78.48,2.36h-7.02c-2.47,0-4.49.43-6.02,1.27-.36.2-.68.41-.96.64-1.65,1.29-2.48,3.18-2.48,5.62s.83,4.33,2.48,5.62c.1.08.21.16.34.25.05.04.1.07.15.1.99.65,2.23,1.1,3.69,1.34h.07c.25.04.5.06.73.08.19.02.38.03.59.03.32.01.86.02,1.43.02,1.09,0,2.31-.01,2.39-.02h.46v-3.06l-.14-.14c-.16-.15-.19-.18-3.23-.13-1.74.04-3.12-.3-4.07-1.01-.5-.36-.85-.83-1.08-1.42-.18-.48-.27-1.04-.27-1.68,0-.79.14-1.46.41-2,.22-.43.53-.79.92-1.08.92-.67,2.47-1.01,4.59-1.01h12.74v-2.97l-.03-.47h-.47Z"/>
  </g>
  <g>
    <path class="st0" d="M29.59,35.25c-.1-.11-.22-.2-.35-.26-.14-.06-.27-.09-.41-.09s-.26.03-.38.08c-.12.05-.22.12-.31.21-.09.09-.16.2-.21.32-.05.12-.07.25-.07.39s.02.27.07.39c.05.12.12.23.21.32.09.09.19.16.31.21s.25.08.38.08.27-.03.41-.09c.13-.06.25-.14.35-.24l.27.28c-.09.09-.19.17-.31.24-.12.07-.24.12-.36.16-.13.04-.25.05-.38.05-.2,0-.39-.04-.56-.11-.17-.07-.32-.17-.45-.3-.13-.13-.23-.28-.3-.45s-.11-.35-.11-.55.04-.38.11-.54.17-.32.31-.44.28-.23.46-.3c.17-.07.36-.11.56-.11.13,0,.26.02.38.05.12.03.24.08.36.14.11.06.21.14.3.23l-.27.32Z"/>
    <path class="st0" d="M31.15,34.54h.46l.78,1.35.76-1.35h.47l-1.2,2.15h-.07l-1.21-2.15ZM32.17,36.12h.46v1.15h-.46v-1.15Z"/>
    <path class="st0" d="M36.35,34.54c.19,0,.35.03.49.08.14.05.24.13.32.23.07.1.11.22.11.37,0,.15-.04.28-.13.39s-.2.18-.35.21c.18.03.33.11.43.23s.16.28.16.46c0,.16-.04.29-.12.4-.08.11-.2.2-.34.26s-.33.09-.53.09h-1.21v-2.73h1.19ZM36.32,35.67c.15,0,.26-.03.34-.1.08-.07.12-.16.12-.28s-.04-.21-.12-.27c-.08-.06-.2-.09-.34-.09h-.7v.74h.7ZM36.32,36.88c.18,0,.32-.03.42-.1.1-.07.15-.17.15-.31,0-.12-.05-.22-.15-.29-.1-.07-.24-.11-.42-.1h-.7v.81h.7Z"/>
    <path class="st0" d="M39.09,34.54h1.95v.39h-1.49v.77h1.33v.39h-1.33v.78h1.54v.39h-2v-2.73Z"/>
    <path class="st0" d="M43.93,34.54c.35,0,.62.08.81.24.19.16.29.39.29.68s-.1.55-.29.72c-.19.17-.46.26-.81.26h-.65v.83h-.46v-2.73h1.11ZM43.93,36.04c.21,0,.37-.05.49-.14.12-.09.17-.23.17-.43s-.06-.32-.17-.41c-.12-.09-.28-.13-.49-.13h-.65v1.11h.65ZM43.94,36.26h.45l.68,1.01h-.52l-.61-1.01Z"/>
    <path class="st0" d="M50.7,35.17c-.1-.06-.2-.11-.29-.15-.1-.04-.19-.06-.27-.08-.09-.02-.16-.02-.23-.02-.14,0-.24.03-.32.08-.08.05-.12.13-.12.23,0,.09.03.16.08.22.05.06.12.1.21.14.09.03.18.07.29.1.11.03.21.07.31.1.1.04.2.09.29.15.09.06.16.14.21.23s.08.21.08.35c0,.16-.04.3-.13.42-.09.12-.21.21-.36.28s-.33.1-.53.1c-.14,0-.28-.02-.42-.06-.14-.04-.26-.09-.38-.15-.12-.07-.22-.14-.32-.23l.2-.38c.09.09.19.16.3.22.11.06.21.11.32.14.11.03.21.05.31.05.16,0,.29-.03.38-.09.09-.06.13-.15.13-.26,0-.09-.03-.16-.08-.22-.05-.06-.12-.1-.21-.14s-.18-.07-.29-.1c-.11-.03-.21-.06-.32-.1s-.2-.09-.29-.14-.16-.13-.21-.22c-.05-.09-.08-.21-.08-.35,0-.15.04-.29.12-.4.08-.11.2-.2.35-.26.15-.06.32-.09.52-.09.18,0,.35.03.52.08.17.05.31.12.44.2l-.19.39Z"/>
    <path class="st0" d="M52.63,34.54h1.95v.39h-1.49v.77h1.33v.39h-1.33v.78h1.54v.39h-2v-2.73Z"/>
    <path class="st0" d="M58.34,35.25c-.1-.11-.22-.2-.35-.26-.14-.06-.27-.09-.41-.09s-.26.03-.38.08c-.12.05-.22.12-.31.21-.09.09-.16.2-.21.32-.05.12-.07.25-.07.39s.02.27.07.39c.05.12.12.23.21.32.09.09.19.16.31.21s.25.08.38.08.27-.03.41-.09c.13-.06.25-.14.35-.24l.27.28c-.09.09-.19.17-.31.24-.12.07-.24.12-.36.16-.13.04-.25.05-.38.05-.2,0-.39-.04-.56-.11-.17-.07-.32-.17-.45-.3-.13-.13-.23-.28-.3-.45s-.11-.35-.11-.55.04-.38.11-.54.17-.32.31-.44.28-.23.46-.3c.17-.07.36-.11.56-.11.13,0,.26.02.38.05.12.03.24.08.36.14.11.06.21.14.3.23l-.27.32Z"/>
    <path class="st0" d="M60.66,36.15c0,.24.06.42.2.56.13.14.31.2.53.2s.39-.07.52-.2c.13-.13.19-.32.19-.56v-1.61h.46v1.61c0,.24-.05.44-.14.61-.09.17-.23.31-.4.4-.18.09-.38.14-.63.14s-.46-.05-.63-.14c-.18-.09-.31-.22-.41-.4-.09-.17-.14-.38-.14-.61v-1.61h.46v1.61Z"/>
    <path class="st0" d="M65.49,34.54c.35,0,.62.08.81.24.19.16.29.39.29.68s-.1.55-.29.72c-.19.17-.46.26-.81.26h-.65v.83h-.46v-2.73h1.11ZM65.49,36.04c.21,0,.37-.05.49-.14.12-.09.17-.23.17-.43s-.06-.32-.17-.41c-.12-.09-.28-.13-.49-.13h-.65v1.11h.65ZM65.51,36.26h.45l.68,1.01h-.52l-.61-1.01Z"/>
    <path class="st0" d="M68.38,34.54h.46v2.73h-.46v-2.73Z"/>
    <path class="st0" d="M70.4,34.54h2.19v.39h-.87v2.34h-.46v-2.34h-.86v-.39Z"/>
    <path class="st0" d="M73.8,34.54h.46l.78,1.35.76-1.35h.47l-1.2,2.15h-.07l-1.21-2.15ZM74.82,36.12h.46v1.15h-.46v-1.15Z"/>
  </g>
</svg>