<?xml version="1.0" encoding="UTF-8"?>
<svg xmlns="http://www.w3.org/2000/svg" version="1.1" viewBox="0 0 90 45">
  <!-- Generator: Adobe Illustrator 29.0.1, SVG Export Plug-In . SVG Version: 2.1.0 Build 192)  -->
  <defs>
    <style>
      .st0 {
        fill: #7a8095;
      }

      .st1 {
        fill: #022658;
      }

      .st2 {
        fill: #3887ba;
      }

      .st3 {
        fill: #797f94;
      }

      .st4 {
        isolation: isolate;
      }

      .st5 {
        fill: #818696;
      }

      .st6 {
        fill: #260674;
      }

      .st7 {
        mix-blend-mode: darken;
      }

      .st8 {
        fill: #01af9a;
      }

      .st9 {
        fill: #7a7f94;
      }

      .st10 {
        fill: #787e93;
      }

      .st11 {
        fill: #7d8196;
      }

      .st12 {
        fill: #787d93;
      }

      .st13 {
        fill: #00af9a;
      }
    </style>
  </defs>
  <g class="st4">
    <g id="Layer_1">
      <g class="st7">
        <g>
          <path class="st8" d="M10.45,18.91c-.01,2.19.09,4.41-.1,6.6l-6.15,6.22c-.1-.01-.27-.16-.39-.19,0-.39,0-.78,0-1.16,0-.03.2-.31.21-.66.08-3.6-.09-7.21-.02-10.8h6.44Z"/>
          <path class="st6" d="M23.14,12.5c-.68,1.24-5.85,5.36-6.05,6.21h-.2c-.32.2-.19.74-.2,1.07-.02,1.62-.02,3.24,0,4.86,0,.33-.12.86.2,1.07,0,2,0,4.02,0,6.02-4.07-.29-8.69.39-12.69,0l6.15-6.22c.19-2.19.09-4.4.1-6.6,0-.13,0-.26,0-.39,0-2,0-4.02,0-6.02h12.69Z"/>
          <path class="st13" d="M23.14,12.5l.2,12.81h-6.25c.29-1.84-.39-4.94,0-6.6.2-.85,5.38-4.98,6.05-6.21Z"/>
          <path class="st10" d="M73.31,12.5v6.21h7.03v-3.88h1.37v3.88h2.73v-3.88h1.17v5.24h-22.16c-2.05,0-2.5-2.93-2.25-4.47h1.56c0,.91-.29,3.11,1.07,3.11h8.1v-6.21h1.37Z"/>
          <path class="st3" d="M35.05,14.64c.27.05,1.04-.09,1.16.02.08.08-.1.53.12.57,1.27.25,3.53-.51,4.59.66.12.14.58,1.07.58,1.17v3.01h-5.27c-.06,0,.06,1.16,0,1.16h-4.39c-.74,0-2.05-1.25-2.05-2.04v-3.59h1.56v3.59c0,.08.78.68.88.68h2.83v-5.24ZM40.12,18.71c.16-.49-.1-2.14-.68-2.14h-3.22v2.14h3.9Z"/>
          <path class="st0" d="M64.62,23.57c1.63.2,3.09,1.25,2.29,3.06-.25.57-.68.49-.83.63-.09.09,1.02.71,1.22,1.21.31.78.27,1.87-.34,2.47-.17.17-1.2.78-1.37.78h-4.39v-7.86s.27-.29.29-.29c.96,0,2.22-.11,3.12,0ZM65.47,25.34c-.18-.28-2.54-.58-2.71-.42v1.94c.74-.11,2.43.35,2.69-.53.07-.22.12-.84.01-1ZM62.77,30.36c4.45.64,4.35-2.74,0-2.14v2.14Z"/>
          <path class="st9" d="M33,23.57c1.57.19,2.99,1.03,2.82,2.79-.15,1.61-1.56,1.84-1.56,1.97,0,.56,2.12,3.27,1.96,3.39-.41-.08-1.45.14-1.73-.03-.15-.1-1.34-2.71-1.79-2.98-.37-.22-.95-.06-1.37-.1v3.11h-1.56v-7.86s.27-.29.29-.29c.91,0,2.07-.1,2.93,0ZM34.02,25.36c-.46-.46-2.04-.46-2.69-.43v2.33c.82,0,2.78.25,2.93-.88.04-.26-.06-.83-.25-1.01Z"/>
          <path class="st10" d="M54.76,12.5v7.57h-3.9c-.11,0,.18,1.38-.93,1.89-.33.15-1.51.38-1.61-.08-.04-.15-.02-.99.02-1.02.04-.04,1.16-.12,1.16-.2v-5.82h1.37v3.88h2.54v-6.21h1.37Z"/>
          <path class="st0" d="M42.07,26.48v3.2c0,.79,1.38.74,1.95.68v-3.88h1.37v5.73c0,.38-.73,1.25-1.13,1.4-.5.2-2.68.33-2.96.04-.09-.1.04-.9-.01-1.16.22-.22,2.78.54,2.73-.77-1.02.19-3.32-.09-3.32-1.46v-3.79h1.37Z"/>
          <polygon class="st3" points="44.22 12.5 44.22 18.71 46.76 18.71 46.76 14.83 48.13 14.83 48.13 20.07 42.85 20.07 42.85 12.5 44.22 12.5"/>
          <path class="st12" d="M57.5,24.15v7.28s-.27.29-.29.29h-2.93c-.48,0-1.53-1.09-1.7-1.61-.89-2.71,1.21-4.21,3.76-3.83v-2.14s1.17,0,1.17,0ZM56.3,27.67c-2.5-1.1-3.71,2.53-1.23,2.88,2.01.28,1.08-1.53,1.23-2.88Z"/>
          <path class="st11" d="M81.7,24.15v4.66c1.43-.89,1.64-2.83,3.71-2.33.36.32-2.21,2.15-2.13,2.59l2.33,2.64c-1.94.46-2.53-1.43-3.9-2.33v2.33s-1.37,0-1.37,0v-7.57h1.37Z"/>
          <path class="st9" d="M51.25,31.53c-1.45.23-4.71.8-4.7-1.46,0-1.81,1.93-1.88,3.34-1.85-.02-1.35-2.78-.23-2.93-.39-.64-1.87,2.52-1.87,3.5-1.25.13.08.79.71.79.77v4.17ZM49.88,29.39c-2.69-.34-2.72,1.54,0,1.17v-1.17Z"/>
          <path class="st3" d="M73.31,31.53c-1.44.32-4.71.78-4.7-1.46,0-1.81,1.93-1.88,3.34-1.85-.06-1.4-2.78-.23-2.93-.39-.44-1.76,1.78-1.78,2.98-1.51.31.07,1.31.87,1.31,1.03v4.17ZM72.14,29.39c-2.96-.42-2.98,1.58,0,1.17v-1.17Z"/>
          <path class="st0" d="M79.36,31.72h-1.56v-3.59c0-.53-1.53-.55-1.95-.49v4.08h-1.37v-5.24c1.46-.3,4.88-.58,4.88,1.65v3.59Z"/>
          <rect class="st12" x="56.32" y="12.5" width="1.17" height="7.57"/>
          <rect class="st11" x="37.78" y="26.48" width="1.37" height="5.24"/>
          <path class="st5" d="M68.62,14.25s.03.75,0,.77c-.15.15-1.55-.4-1.17,1.17.34.11.93-.28,1.18-.11.22.15.26.81.19.89-.08.08-1.8-.05-2.15,0,.05-.82-.31-2.38.72-2.68.21-.06,1.18-.09,1.23-.04Z"/>
          <rect class="st5" x="37.78" y="12.89" width="1.37" height="1.36"/>
          <rect class="st5" x="80.33" y="12.5" width="1.37" height="1.36"/>
          <rect class="st5" x="44.02" y="21.04" width="1.37" height="1.36"/>
          <rect class="st5" x="46.17" y="21.04" width="1.37" height="1.36"/>
          <rect class="st5" x="37.78" y="24.15" width="1.37" height="1.36"/>
          <rect class="st11" x="84.24" y="21.04" width="1.37" height="1.36"/>
          <path class="st1" d="M16.89,25.32c0,.13,0,.26,0,.39-.32-.2-.2-.74-.2-1.07-.02-1.62-.02-3.24,0-4.86,0-.33-.13-.86.2-1.07,0,2.2,0,4.4,0,6.6Z"/>
          <path class="st2" d="M17.09,25.32h-.2c0-2.2,0-4.4,0-6.6h.2c-.39,1.67.29,4.77,0,6.6Z"/>
        </g>
      </g>
    </g>
  </g>
</svg>