<svg width="83" height="44" viewBox="0 0 83 44" fill="none" xmlns="http://www.w3.org/2000/svg">
<path d="M72.7254 36.1846L66.9316 27.3926H73.5944V28.4789H68.9015L73.6379 35.5907L72.7254 36.1846Z" fill="#152A54"/>
<path d="M82.5469 1.32031V36.1842H72.7266V1.32031H82.5469Z" fill="#152A54"/>
<path d="M54.868 13.3138V22.5114C54.868 26.2628 53.5355 27.9575 51.0297 27.9575C48.5094 27.9575 47.1479 26.2628 47.1479 22.5114V14.2553C47.1479 10.5183 48.5094 8.82362 51.0007 8.80914V0.582031H50.9862C41.9335 0.582031 37.2695 5.66604 37.2695 15.2981V21.4685C37.2695 31.1585 41.9335 36.1846 51.0297 36.1846C60.0824 36.1846 64.7319 31.1585 64.7319 21.4685V13.3138H54.868Z" fill="#152A54"/>
<path fill-rule="evenodd" clip-rule="evenodd" d="M5.60547 21.4685V15.2981C5.60547 5.66604 10.2549 0.582031 19.3077 0.582031C28.4038 0.582031 33.0678 5.66604 33.0678 15.2981V21.4685C33.0678 31.1585 28.4038 36.1846 19.3511 36.1846C10.255 36.1846 5.60547 31.1585 5.60547 21.4685ZM23.1895 22.5114V14.2553C23.1895 10.5038 21.8714 8.80914 19.3511 8.80914C16.8453 8.80914 15.4693 10.5038 15.4693 14.2553V22.5114C15.4693 26.2628 16.8453 27.9575 19.3511 27.9575C21.8714 27.9575 23.1895 26.2628 23.1895 22.5114Z" fill="#152A54"/>
<path d="M54.868 13.3138V22.5114C54.868 26.2628 53.5355 27.9575 51.0297 27.9575C48.5094 27.9575 47.1479 26.2628 47.1479 22.5114V14.2553C47.1479 10.5183 48.5094 8.82362 51.0007 8.80914V0.582031H50.9862C41.9335 0.582031 37.2695 5.66604 37.2695 15.2981V21.4685C37.2695 31.1585 41.9335 36.1846 51.0297 36.1846C60.0824 36.1846 64.7319 31.1585 64.7319 21.4685V13.3138H54.868Z" fill="#152A54"/>
<path d="M54.868 13.3138V22.5114C54.868 26.2628 53.5355 27.9575 51.0297 27.9575C48.5094 27.9575 47.1479 26.2628 47.1479 22.5114V14.2553C47.1479 10.5183 48.5094 8.82362 51.0007 8.80914V0.582031H50.9862C41.9335 0.582031 37.2695 5.66604 37.2695 15.2981V21.4685C37.2695 31.1585 41.9335 36.1846 51.0297 36.1846C60.0824 36.1846 64.7319 31.1585 64.7319 21.4685V13.3138H54.868Z" fill="#152A54"/>
<path d="M7.6771 41.1524L0.724609 34.1999L9.37176 25.5527L16.3243 32.5052L7.6771 41.1524Z" fill="#152A54"/>
<path d="M22.1193 42.1777H20.7578L22.0469 43.4668H23.4085L22.1193 42.1777Z" fill="#152A54"/>
<path d="M22.9293 41.4699V40.1808C22.9293 38.6454 22.1906 37.8633 20.7566 37.8633C19.3227 37.8633 18.584 38.6454 18.584 40.1808V41.1512C18.584 42.6721 19.3227 43.4687 20.7566 43.4687V42.1796C20.3656 42.1796 20.1483 41.9044 20.1483 41.325V40.0214C20.1483 39.4276 20.3656 39.1524 20.7566 39.1524C21.1622 39.1524 21.365 39.4276 21.365 40.0214V41.4699H22.9293Z" fill="#152A54"/>
<path d="M18.0047 40.1808V40.8905H16.4404V40.0214C16.4404 39.4276 16.2376 39.1524 15.832 39.1524C15.4409 39.1524 15.2237 39.4276 15.2237 40.0214V43.4687H13.6738V40.1808C13.6738 38.6599 14.398 37.8633 15.832 37.8633C17.266 37.8633 18.0047 38.6599 18.0047 40.1808Z" fill="#152A54"/>
<path d="M16.7889 41.2969H15.2246L16.5716 43.4695H18.136L16.7889 41.2969Z" fill="#152A54"/>
<path d="M25.9429 37.9512H24.8711L25.7981 41.2246H26.8699L25.9429 37.9512Z" fill="#152A54"/>
<path fill-rule="evenodd" clip-rule="evenodd" d="M26.9708 40.8915V40.877L26.5508 39.3996L27.2605 37.9512H28.4048L26.9708 40.8915ZM27.304 38.0381L26.6377 39.4141L26.9853 40.6453L28.2455 38.0381H27.304Z" fill="#152A54"/>
<path d="M25.2315 37.9512V43.4697H24.0293V37.9512H25.2315Z" fill="#152A54"/>
<path d="M28.4631 37.9512V43.4697H27.2754V37.9512H28.4631Z" fill="#152A54"/>
<path d="M51 8.80914L59.1981 0.610993L67.8019 0.582031L59.5892 8.80914H51Z" fill="#152A54"/>
</svg>
