<?xml version="1.0" encoding="UTF-8"?>
<svg id="Layer_1" xmlns="http://www.w3.org/2000/svg" version="1.1" viewBox="0 0 90 45">
  <!-- Generator: Adobe Illustrator 29.0.1, SVG Export Plug-In . SVG Version: 2.1.0 Build 192)  -->
  <defs>
    <style>
      .st0 {
        fill: #eb6c1e;
      }
    </style>
  </defs>
  <rect class="st0" x="10.88" y="21.88" width="5.31" height="1.19"/>
  <path class="st0" d="M18.84,17.53h-3.51l.85,1.21,2.57.78c.48.15.78.6.77,1.06h0v3.84h0c0,.48-.3.91-.77,1.06l-2.56.78-.86,1.21h3.51c1.47,0,2.65-1.19,2.65-2.65v-4.64c.01-1.46-1.18-2.65-2.65-2.65"/>
  <path class="st0" d="M8.21,17.53h3.51l-.85,1.21-2.56.78c-.48.15-.78.6-.77,1.06h0v3.84h0c0,.48.3.91.77,1.06l2.56.78.85,1.21h-3.51c-1.46,0-2.65-1.19-2.65-2.65v-4.64c0-1.46,1.19-2.65,2.65-2.65"/>
  <path class="st0" d="M64.51,24.47c0,.86-.7,1.55-1.58,1.55s-1.58-.7-1.58-1.55v-3.8c0-.86.7-1.55,1.58-1.55s1.58.7,1.58,1.55v.04h1.21v-.05c0-1.5-1.25-2.73-2.78-2.73s-2.78,1.23-2.78,2.74v3.79c0,1.51,1.25,2.74,2.78,2.74s2.77-1.23,2.78-2.74v-.04h-1.21v.05Z"/>
  <path class="st0" d="M70.76,20.38c-1.27,0-2.33.99-2.38,2.25v2.33c.07,1.26,1.11,2.25,2.38,2.25s2.32-.99,2.38-2.25v-2.33c-.05-1.26-1.1-2.25-2.38-2.25M71.94,24.82c-.01.66-.53,1.18-1.18,1.18s-1.17-.52-1.18-1.18v-2.05c0-.65.53-1.18,1.18-1.18s1.18.53,1.18,1.18v2.05Z"/>
  <rect class="st0" x="66.31" y="17.93" width="1.21" height="9.14"/>
  <rect class="st0" x="33.23" y="20.38" width="1.21" height="6.68"/>
  <rect class="st0" x="30.83" y="17.93" width="1.21" height="9.14"/>
  <path class="st0" d="M27.8,17.93h-1.47l-2.42,9.13h0s1.19.01,1.19.01l.65-2.42h2.65s.64,2.42.64,2.42h0s1.19.01,1.19.01l-2.42-9.16h0ZM28.07,23.45h-2.01l1.01-3.79,1.01,3.79Z"/>
  <path class="st0" d="M77.59,24.95c0,.65-.53,1.18-1.18,1.18s-1.18-.53-1.18-1.18v-4.57h-1.21v4.77c0,1.14.93,2.07,2.07,2.07.21,0,.41-.03.61-.09.12-.04.23-.08.33-.13.19-.09.36-.21.5-.36l.05-.05v.49h1.21v-6.69h-1.21v4.57h0Z"/>
  <rect class="st0" x="33.23" y="17.93" width="1.21" height="1.21"/>
  <path class="st0" d="M38.33,20.38c-.54,0-1.06.21-1.44.6l-.05.05v-3.1h-1.21v9.14h1.21v-.49l.05.05c.38.38.9.6,1.44.6,1.14,0,2.07-.93,2.07-2.07v-2.72c0-1.15-.93-2.07-2.07-2.07M39.2,22.66v2.27c0,.65-.53,1.19-1.19,1.19s-1.19-.53-1.19-1.19v-2.27c0-.65.53-1.19,1.19-1.19.66.01,1.19.54,1.19,1.19"/>
  <path class="st0" d="M49.51,20.37c-.54,0-1.06.21-1.44.6l-.05.05v-3.09h-1.21v9.14h1.21v-.49l.05.05c.38.38.9.6,1.44.6,1.14,0,2.07-.93,2.07-2.07v-2.73c0-1.14-.93-2.07-2.07-2.07M50.39,22.66v2.27c0,.65-.53,1.19-1.19,1.19s-1.19-.53-1.19-1.19v-2.27c0-.65.53-1.19,1.19-1.19s1.19.54,1.19,1.19"/>
  <path class="st0" d="M83.23,17.93v3.09l-.05-.05c-.38-.38-.9-.6-1.44-.6-1.14,0-2.07.93-2.07,2.07v2.7h0c0,1.15.93,2.07,2.07,2.07.54,0,1.06-.21,1.44-.6l.05-.05v.49h1.21v-9.12h-1.21ZM83.22,22.66v2.27c0,.65-.53,1.19-1.19,1.19s-1.19-.53-1.19-1.19v-2.27c0-.65.53-1.19,1.19-1.19s1.19.54,1.19,1.19"/>
  <path class="st0" d="M45.95,22.65c0-.07-.01-.15-.03-.24v-.03c-.07-.36-.2-.7-.41-1.01-.42-.6-1.07-.95-1.79-.99h-.13c-.56,0-1.1.2-1.54.56-.42.36-.72.85-.82,1.4h0s1.18.01,1.18.01h0c.11-.57.6-.97,1.15-.97.3,0,.6.12.82.33.23.21.34.5.36.81v.56h-1.71c-1.14,0-2.07.93-2.07,2.07,0,.95.66,1.76,1.55,2,.01,0,.03,0,.03.01.04.01.08.01.12.03s.09.01.15.03h.03c.09.01.2.01.32.01.29,0,.54-.04.72-.11.3-.09.58-.26.82-.49l.05-.05v.49h1.21v-4.43h0ZM43.27,23.98h1.46v.85c0,.64-.46,1.19-1.09,1.31-.09.03-.19.03-.26.03-.21,0-.41-.05-.61-.17-.05-.03-.11-.07-.16-.09-.07-.05-.13-.12-.19-.19h-.01c-.15-.2-.23-.42-.23-.66.01-.6.49-1.07,1.09-1.07"/>
  <path class="st0" d="M57.14,22.65c0-.07-.01-.15-.03-.24v-.03c-.07-.36-.2-.7-.41-1.01-.42-.6-1.07-.95-1.79-.99h-.13c-.56,0-1.1.2-1.54.56-.42.36-.72.85-.82,1.4h0s1.18.01,1.18.01h0c.11-.57.6-.97,1.15-.97.3,0,.6.12.82.33.23.21.34.5.36.81v.56h-1.71c-1.14,0-2.07.93-2.07,2.07,0,.95.66,1.76,1.55,2,.01,0,.03,0,.03.01.04.01.08.01.12.03s.09.01.15.03h.03c.09.01.2.01.32.01.29,0,.54-.04.72-.11.3-.09.58-.26.82-.49l.05-.05v.49h1.21v-4.43h0ZM54.47,23.98h1.46v.85c0,.64-.46,1.19-1.09,1.31-.09.03-.19.03-.26.03-.21,0-.41-.05-.61-.17-.05-.03-.11-.07-.16-.09-.07-.05-.13-.12-.19-.19h-.01c-.15-.2-.23-.42-.23-.66.01-.58.49-1.07,1.09-1.07"/>
</svg>