<?xml version="1.0" encoding="UTF-8"?>
<svg id="Layer_1" xmlns="http://www.w3.org/2000/svg" version="1.1" viewBox="0 0 90 45">
  <!-- Generator: Adobe Illustrator 29.0.1, SVG Export Plug-In . SVG Version: 2.1.0 Build 192)  -->
  <defs>
    <style>
      .st0 {
        fill: #000f44;
      }
    </style>
  </defs>
  <path class="st0" d="M67.57,4.51l-4.4,4.4v6.09h6.99v19.84h-18.92V15h2.75l3.5-3.5v-5.68l1.31-1.31h-.57l-4.24,4.24v2.76h-2.75l-3.5,3.5v19.84l3.5,3.5h22.41V4.51h-6.08ZM66.66,7.81h3.5v3.7h-3.5v-3.7Z"/>
  <path class="st0" d="M49.31,7.63c-.43,0-.79-.15-1.1-.46-.31-.31-.46-.67-.46-1.1s.15-.8.46-1.11.67-.46,1.11-.46.8.15,1.1.46c.3.3.46.67.46,1.11s-.15.8-.46,1.1c-.3.3-.67.46-1.1.46M48.29,7.09c.28.28.62.43,1.02.43s.74-.14,1.02-.43c.28-.28.43-.62.43-1.02s-.14-.74-.43-1.02c-.28-.28-.62-.43-1.02-.43s-.74.14-1.02.43-.43.62-.43,1.02.14.74.43,1.02M49.76,7h.37l-.52-.77c.28-.06.42-.23.42-.52,0-.38-.23-.57-.68-.57h-.71v1.86h.34v-.72h.28l.49.72ZM48.98,6v-.58h.34c.24,0,.36.1.36.29,0,.2-.12.3-.36.29h-.34Z"/>
  <g>
    <path class="st0" d="M26.47,19.55v2.41c0,.1-.07.18-.17.18-.97,0-1.82-.35-2.49-1-.67.67-1.72,1-3.15,1h-3.75l-.4-2.76h4.18c.94,0,1.39-.52,1.39-1.29v-.54c-.02-.89-.75-1.49-1.82-1.49h-1.14v-2.68h1.74c2.28,0,3.85,1.37,3.85,3.93v1.31c0,.12,0,.23-.02.35.45.25.95.4,1.61.4.1,0,.17.07.17.17Z"/>
    <path class="st0" d="M32.95,19.55v2.41c0,.1-.07.18-.17.18-.89,0-1.84-.45-2.63-1.25-.77.84-2.09,1.25-3.85,1.25-.1,0-.17-.08-.17-.18l.03-2.41c0-.1.07-.17.17-.17,1.31,0,2.01-.5,2.01-1.71l-.02-2.01,2.61-.3v3.48c.55.35,1.19.54,1.84.54.1,0,.17.07.17.17ZM30.74,23l1.76,1.72-1.72,1.72-1.22-1.19-1.19,1.19-1.76-1.72,1.72-1.72,1.22,1.19,1.19-1.19Z"/>
    <path class="st0" d="M41.41,17.58c0,2.78-1.84,4.57-4.79,4.57h-3.85c-.12,0-.17-.05-.17-.18v-2.41c0-.1.07-.17.17-.17h1.04c-.32-.67-.5-1.31-.5-1.96,0-2.28,1.72-3.9,3.97-3.9,2.39,0,4.13,1.71,4.13,4.05ZM35.89,12.43l-1.74-1.74,1.72-1.72,1.32,1.29,1.31-1.29,1.74,1.72-1.71,1.74-1.34-1.31-1.31,1.31ZM38.8,17.56c0-.89-.67-1.54-1.56-1.54s-1.61.72-1.61,1.64c0,.54.17,1.1.47,1.72h.54c1.36,0,2.16-.72,2.16-1.82Z"/>
  </g>
  <g>
    <path class="st0" d="M22.57,40.49l-1.33-2.05c-.09.02-.2.03-.31.04-.11,0-.23.01-.36.01-1.03,0-1.85-.17-2.47-.52-.62-.35-1.06-.88-1.34-1.6-.28-.72-.41-1.65-.41-2.77s.14-2.06.41-2.79c.28-.73.72-1.27,1.34-1.62.62-.35,1.44-.53,2.47-.53s1.87.18,2.49.53c.62.36,1.07.9,1.34,1.62.28.73.41,1.66.41,2.79,0,1.03-.11,1.88-.33,2.57-.22.69-.59,1.21-1.1,1.58l1.15,1.77-1.96.97ZM20.56,36.46c.49,0,.85-.11,1.1-.32.25-.21.41-.53.5-.96.08-.42.13-.95.13-1.56s-.04-1.14-.13-1.57c-.08-.43-.25-.76-.49-.98-.24-.22-.61-.34-1.11-.34s-.84.11-1.09.34c-.25.22-.42.55-.51.97-.09.43-.14.95-.14,1.58s.04,1.13.13,1.55c.09.42.26.74.51.96.25.22.62.33,1.09.33Z"/>
    <path class="st0" d="M27.61,38.34v-3.33l-2.82-6.15h2.68l1.4,3.38,1.44-3.38h2.66l-2.87,6.15v3.33h-2.49Z"/>
    <path class="st0" d="M33.56,38.34v-9.48h3.78c.78,0,1.43.1,1.98.29.54.2.98.49,1.31.88.33.39.57.87.72,1.44.15.57.22,1.24.22,1.98s-.07,1.43-.21,2.03c-.14.6-.37,1.11-.69,1.54-.32.43-.74.76-1.27.98s-1.19.34-1.96.34h-3.88ZM36.06,36.28h1.2c.39,0,.71-.07.95-.21.24-.14.42-.34.54-.59.12-.25.2-.55.24-.9.04-.35.06-.72.06-1.13s-.02-.74-.07-1.06c-.05-.31-.13-.58-.25-.81-.12-.22-.3-.39-.53-.5-.23-.11-.54-.17-.92-.17h-1.2v5.37Z"/>
  </g>
</svg>