<?xml version="1.0" encoding="UTF-8"?>
<svg id="Layer_1" xmlns="http://www.w3.org/2000/svg" version="1.1" viewBox="0 0 90 45">
  <!-- Generator: Adobe Illustrator 29.0.1, SVG Export Plug-In . SVG Version: 2.1.0 Build 192)  -->
  <defs>
    <style>
      .st0 {
        fill: #592d8a;
      }

      .st1 {
        fill: #582d8a;
      }

      .st2 {
        fill: #572b89;
      }

      .st3 {
        fill: #572c8a;
      }
    </style>
  </defs>
  <path class="st2" d="M69.86,27.64l5.59,1.8c-.9,3.38-3.7,6.26-7.05,7.3-10.39,3.24-19.02-6.77-15.14-16.72,3.83-9.84,19.14-10.07,21.94.41-.16.23-4.98,1.83-5.26,1.8-.42-.04-1.01-1.58-1.39-2.05-1.52-1.88-4.46-2.21-6.6-1.24-3.51,1.6-4.15,6.59-2.44,9.71,2.26,4.12,9.17,3.72,10.34-1.01Z"/>
  <path class="st3" d="M33.87,19.33l-5.11,1.11c-.77-2.72-3.45-3.6-6-2.73-1.23.42-2.15,1.61-1.42,2.88.85,1.48,5.3,1.66,7.02,2.19,4.38,1.34,7.1,5.02,5.32,9.61-2.7,6.94-16.16,6.32-18.6-.69-.17-.49-.59-1.42-.05-1.68,1.15-.56,3.8-.58,5.11-1.12-.43,3.55,6.68,4.78,7.79,2.27,1.48-3.37-4.1-3.55-6.16-4.16-4.1-1.21-7.32-3.69-6.28-8.43,1.79-8.17,17.36-7.89,18.38.75Z"/>
  <path class="st2" d="M44.19,19.34c.01,2.99-.26,6.57,0,9.47.32,3.74,3.73,3.25,6.33,2.07v4.96c-3.34,2.4-9.93,1.94-11.78-2.13-.13-.28-.69-1.85-.69-2.02v-12.35c2.05,0,4.1,0,6.15,0Z"/>
  <path class="st0" d="M44.19,13.4c-2.05,0-4.1,0-6.15,0v-6.49h6.15c0,2.16,0,4.33,0,6.49Z"/>
  <path class="st1" d="M44.19,13.4c2.11,0,4.22,0,6.33,0v5.95c-2.11,0-4.22,0-6.33,0,0-1.98,0-3.97,0-5.95Z"/>
</svg>