<?xml version="1.0" encoding="UTF-8"?>
<svg id="Layer_1" xmlns="http://www.w3.org/2000/svg" version="1.1" viewBox="0 0 90 45">
  <!-- Generator: Adobe Illustrator 29.0.1, SVG Export Plug-In . SVG Version: 2.1.0 Build 192)  -->
  <defs>
    <style>
      .st0 {
        fill: #4285f4;
      }

      .st1 {
        fill: #fbbc05;
      }

      .st2 {
        fill: #34a853;
      }

      .st3 {
        fill: #ea4335;
      }

      .st4 {
        fill: #5f6368;
      }
    </style>
  </defs>
  <g>
    <path class="st2" d="M37.18,31.4h7.81v-6.25h-7.81c-.56,0-1.11-.12-1.61-.35l-1.1.34-3.15,3.13-.27,1.1c1.77,1.33,3.92,2.05,6.13,2.04Z"/>
    <g>
      <path class="st3" d="M49.9,10.47h1.1l3.13-3.13.15-1.33c-5.82-5.13-14.7-4.58-19.83,1.24-1.43,1.62-2.46,3.54-3.03,5.62.35-.14.73-.17,1.1-.07l6.25-1.03s.32-.53.48-.49c2.78-3.05,7.46-3.41,10.67-.81h-.02Z"/>
      <path class="st0" d="M58.58,12.87c-.72-2.65-2.19-5.02-4.24-6.84l-4.39,4.39c1.85,1.51,2.91,3.79,2.86,6.19v.78c2.16,0,3.9,1.75,3.9,3.9s-1.75,3.9-3.9,3.9h-7.81l-.78.79v4.68l.78.78h7.81c5.61.04,10.19-4.47,10.23-10.08.03-3.4-1.65-6.59-4.47-8.49Z"/>
      <path class="st1" d="M37.18,11.12c-5.61.03-10.13,4.61-10.1,10.22.02,3.13,1.48,6.08,3.96,7.99l4.53-4.53c-1.97-.89-2.84-3.2-1.95-5.17s3.2-2.84,5.17-1.95c.87.39,1.56,1.08,1.95,1.95l4.53-4.53c-1.93-2.52-4.92-3.99-8.09-3.98Z"/>
    </g>
  </g>
  <g>
    <path class="st4" d="M27.07,40.84c-.77,0-1.51-.29-2.04-.84-.56-.52-.87-1.26-.86-2.02,0-.76.3-1.5.86-2.02.54-.55,1.27-.86,2.04-.85.73,0,1.44.27,1.96.79l-.55.56c-.38-.36-.88-.57-1.41-.56-.55,0-1.08.22-1.46.62-.39.39-.61.92-.6,1.47,0,.55.21,1.07.6,1.45.8.79,2.08.81,2.9.03.24-.27.39-.6.42-.96h-1.86v-.79h2.63c.03.16.04.32.03.48.03.68-.21,1.34-.68,1.83-.52.54-1.24.83-1.99.81ZM33.19,40.32c-.73.7-1.89.7-2.62,0-.36-.34-.55-.82-.54-1.32-.01-.49.18-.97.54-1.32.73-.7,1.89-.7,2.62,0,.35.34.55.82.54,1.32.01.5-.18.97-.54,1.32h0ZM31.14,39.8c.38.4,1.01.43,1.42.05.02-.02.03-.03.05-.05.21-.21.32-.5.31-.8,0-.3-.1-.59-.31-.8-.39-.41-1.03-.42-1.44-.03-.01,0-.02.02-.03.03-.21.21-.32.5-.31.8,0,.3.1.59.31.8h0ZM37.22,40.32c-.73.7-1.89.7-2.62,0-.36-.34-.55-.82-.54-1.32-.01-.49.18-.97.54-1.32.73-.7,1.89-.7,2.62,0,.35.34.55.82.54,1.32.01.49-.18.97-.54,1.32ZM35.17,39.8c.38.4,1.01.43,1.42.05.02-.02.03-.03.05-.05.21-.21.32-.5.31-.8,0-.3-.1-.59-.31-.8-.39-.41-1.03-.42-1.44-.03-.01,0-.02.02-.03.03-.21.21-.32.5-.31.8,0,.3.1.59.31.8h0ZM39.87,42.5c-.37.01-.74-.1-1.03-.33-.26-.2-.47-.46-.6-.76l.71-.29c.08.18.2.34.35.46.16.13.37.2.58.2.27.02.53-.09.72-.28.19-.23.28-.51.26-.81v-.27h-.03c-.24.28-.6.44-.97.42-.47,0-.92-.19-1.24-.54-.35-.34-.54-.81-.53-1.3,0-.49.18-.96.53-1.31.32-.35.77-.54,1.24-.54.2,0,.39.04.57.13.15.07.29.17.4.29h.03v-.29h.77v3.3c.04.53-.14,1.05-.49,1.44-.34.32-.79.5-1.26.48ZM39.93,40.12c.27,0,.52-.11.7-.31.19-.22.29-.5.28-.79.01-.3-.09-.58-.28-.81-.18-.2-.43-.32-.7-.31-.27,0-.54.11-.72.31-.2.22-.32.5-.31.8,0,.3.11.58.31.79.19.2.45.32.72.32ZM42.99,35.32v5.41h-.81v-5.41h.81ZM45.21,40.84c-.49.01-.96-.18-1.3-.53-.35-.35-.54-.82-.52-1.31-.02-.49.16-.97.5-1.33.32-.34.77-.53,1.24-.52.21,0,.42.04.62.12.18.07.34.18.47.31.12.11.22.24.31.37.07.11.13.24.18.36l.08.21-2.48,1.02c.15.35.51.57.89.56.37,0,.72-.19.91-.51l.62.42c-.16.23-.36.42-.59.56-.28.18-.6.27-.93.26ZM44.17,38.94l1.65-.68c-.05-.12-.14-.22-.26-.28-.13-.07-.28-.11-.42-.11-.25,0-.49.11-.67.29-.21.2-.32.49-.3.78Z"/>
    <path class="st4" d="M51.03,40.84c-1.41.02-2.57-1.1-2.6-2.51,0-.03,0-.07,0-.1-.03-1.41,1.08-2.58,2.49-2.61.03,0,.07,0,.1,0,.71-.02,1.38.28,1.84.82l-.45.43c-.33-.42-.85-.66-1.39-.64-.52-.01-1.01.19-1.38.55-.38.38-.58.91-.56,1.44-.02.54.18,1.06.56,1.44.37.36.86.56,1.38.55.6,0,1.17-.26,1.55-.72l.45.45c-.23.28-.53.5-.86.65-.36.16-.75.25-1.14.24Z"/>
    <path class="st4" d="M54.23,40.73h-.64v-5h.64v5Z"/>
    <path class="st4" d="M55.27,37.72c.7-.69,1.83-.69,2.53,0,.33.35.51.82.5,1.3.01.48-.16.95-.5,1.3-.7.69-1.83.69-2.53,0-.33-.35-.51-.82-.5-1.3-.01-.48.16-.95.5-1.3ZM55.75,39.92c.41.43,1.09.45,1.53.04.01-.01.03-.03.04-.04.23-.24.35-.57.33-.9.01-.33-.11-.66-.33-.9-.41-.43-1.09-.45-1.53-.04-.01.01-.03.03-.04.04-.23.24-.35.57-.33.9-.01.33.11.65.33.9h0Z"/>
    <path class="st4" d="M61.85,40.73h-.62v-.47h-.02c-.11.18-.27.33-.45.43-.19.11-.41.17-.64.17-.37.03-.72-.12-.97-.39-.23-.3-.35-.67-.33-1.05v-2.11h.64v1.99c0,.64.28.96.85.96.25,0,.5-.11.65-.31.17-.21.25-.47.25-.74v-1.9h.64v3.42Z"/>
    <path class="st4" d="M64.03,40.84c-.44,0-.86-.19-1.15-.52-.32-.35-.49-.82-.48-1.3-.01-.48.16-.94.48-1.3.29-.33.71-.52,1.15-.52.24,0,.48.05.7.17.19.1.35.24.46.42h.03l-.03-.47v-1.58h.64v5h-.62v-.47h-.03c-.11.18-.28.32-.46.42-.21.11-.45.17-.69.17ZM64.13,40.26c.29,0,.57-.12.77-.33.22-.25.33-.57.31-.9.02-.33-.09-.65-.31-.9-.39-.43-1.05-.46-1.48-.07-.02.02-.05.05-.07.07-.22.25-.33.57-.31.9-.02.33.09.65.31.9.2.22.48.35.78.34Z"/>
  </g>
</svg>