<?xml version="1.0" encoding="UTF-8"?>
<svg id="Layer_1" xmlns="http://www.w3.org/2000/svg" version="1.1" viewBox="0 0 90 45">
  <!-- Generator: Adobe Illustrator 29.0.1, SVG Export Plug-In . SVG Version: 2.1.0 Build 192)  -->
  <defs>
    <style>
      .st0 {
        fill: #828487;
      }

      .st1 {
        fill: #21175b;
      }

      .st2 {
        fill: #a3239e;
      }

      .st3 {
        fill: #8d73ae;
      }

      .st4 {
        fill: #7d29ab;
      }

      .st5 {
        fill: #03cbf9;
      }

      .st6 {
        fill: #04caf8;
      }

      .st7 {
        fill: #818386;
      }

      .st8 {
        fill: #8a46b2;
      }

      .st9 {
        fill: #a2239e;
      }

      .st10 {
        fill: #0271c1;
      }

      .st11 {
        fill: #858789;
      }

      .st12 {
        fill: #22185b;
      }
    </style>
  </defs>
  <path class="st7" d="M55.23,23.74v11.5h2.18v-5.02c0-.54,1.33-1.82,1.81-1.82h6.89c-.12.43-1.19,2.42-1.45,2.55-.67.33-3.19-.11-4.13.08-.16.03-.51.25-.51.36v3.86h6.1v2.62h-11.68c-.33,0-1.23-.73-1.45-.73-.21,0-.92.73-1.3.73h-16.18c.16-.95,1.06-1.68,1.31-2.62h4.79v-6.84h6.89c.49,0,1.81,1.28,1.81,1.82v5.02h2.18v-9.98c.74-.63,1.78-1.44,2.76-1.53ZM47.69,35.24v-3.86s-.34-.36-.36-.36h-3.12v3.86s.34.36.36.36h3.12Z"/>
  <path class="st6" d="M41.59,14.27c.33.25,4.66,2.55,4.5,2.77l-4.5,2.48c-1.5-.82-3.03-1.61-4.5-2.48-.06-.03-.1-.12-.15-.15.06-.03.1-.13.15-.15,1.58-.62,2.97-1.75,4.5-2.48Z"/>
  <path class="st9" d="M41.44,24.76c-.39.66-3.61,2.1-4.43,2.61-.24,0-3.82-2.06-4.19-2.34-.16-.13-.3-.15-.24-.41l4.5-2.48,4.35,2.62Z"/>
  <path class="st2" d="M32.44,24.9l-4.57,2.47-4.42-2.54c0-.26,4.17-2.56,4.42-2.56.29,0,4.72,2.41,4.58,2.63Z"/>
  <path class="st5" d="M55.09,16.89c-.36.61-3.65,2.07-4.43,2.62-1.22-.84-3.05-1.49-4.19-2.35-.16-.12-.3-.15-.24-.41l4.5-2.48,4.35,2.62Z"/>
  <polygon class="st12" points="41.59 8.88 41.59 3.64 46.09 1.17 46.09 6.33 42.02 8.8 41.59 8.88"/>
  <path class="st12" d="M32.3,9.17l.15,5.1c-1.29.63-2.79,1.88-4.07,2.4-.15.06-.26.11-.43.08v-5.24c1.43-.39,3-1.97,4.35-2.33Z"/>
  <path class="st10" d="M55.09,16.89l-4.35-2.62v-5.1c.12-.13,2.8,1.45,3.09,1.63.37.23,1.34.69,1.41,1.06.12.66.1,3.95,0,4.68-.03.22-.07.22-.15.35Z"/>
  <path class="st12" d="M37.09,11.5c.68-.04,4.2-2.65,4.5-2.33v5.1c-1.53.72-2.92,1.85-4.5,2.48v-5.24Z"/>
  <path class="st1" d="M41.59,19.51c-.15,1.53.19,3.4,0,4.89-.03.22-.07.22-.15.35l-4.35-2.62v-5.1c1.47.86,3,1.66,4.5,2.48Z"/>
  <path class="st4" d="M37.09,11.5v.29c-.24.15-.15.55-.15.8-.01,1.07-.01,2.14,0,3.21,0,.25-.09.65.15.8v.15s-.09.11-.15.15c-1.46-.86-2.96-1.67-4.35-2.62v-5.1c1.15.27,3.65,2.38,4.5,2.33Z"/>
  <path class="st11" d="M66.12,43.98h-.87v-2.11s-.3-.32-.39-.35c-.99-.27-.49,2.33-.63,2.46h-.87v-2.11c0-.38-.87-.32-.87-.22v2.11c0,.26-.81.24-1.02.22v-3.2c.37-.09.76.11,1.09.12.87.01,1.38,0,2.19-.11.44-.06,1.37.13,1.37.65v2.55Z"/>
  <polygon class="st0" points="58.86 39.61 58.86 40.34 56.97 40.34 56.97 41.28 58.57 41.36 58.57 42.09 56.97 42.09 56.97 43.11 58.86 43.11 58.86 43.98 55.96 43.98 55.96 39.61 58.86 39.61"/>
  <path class="st0" d="M60.46,39.61v3.42c0,.06.74.32.44.95-.37.06-1.31-.02-1.31-.51v-3.86h.87Z"/>
  <path class="st8" d="M32.59,9.17v5.1h-.15l-.15-5.1s.06-.11.11-.11c.1-.03.14.11.18.11Z"/>
  <path class="st3" d="M37.09,16.6c-.24-.15-.14-.55-.15-.8-.01-1.07-.01-2.14,0-3.21,0-.25-.09-.65.15-.8v4.81Z"/>
</svg>