<?xml version="1.0" encoding="UTF-8"?>
<svg id="Layer_1" xmlns="http://www.w3.org/2000/svg" version="1.1" viewBox="0 0 90 45">
  <!-- Generator: Adobe Illustrator 29.0.1, SVG Export Plug-In . SVG Version: 2.1.0 Build 192)  -->
  <defs>
    <style>
      .st0 {
        fill: #0eb69f;
      }

      .st1 {
        fill: #5a5b5d;
      }

      .st2 {
        fill: #5b5c5e;
      }

      .st3 {
        fill: #07b49d;
      }

      .st4 {
        fill: #09b59e;
      }

      .st5 {
        fill: #606163;
      }

      .st6 {
        fill: #08b59d;
      }

      .st7 {
        fill: #5c5d5f;
      }

      .st8 {
        fill: #12b7a1;
      }
    </style>
  </defs>
  <path class="st7" d="M60.89,31.05c-.92.73-2.13.05-2.3-1.03s-.11-3.78,0-4.9c.71-7.89,11.17-7.3,11.67-.01.06.93.12,5.15-.23,5.69s-1.21.66-1.76.41c-1.44-.65-.48-5.63-.89-7.18-.67-2.54-4.96-2.65-5.85-.1-.56,1.59.34,6.34-.64,7.13Z"/>
  <path class="st2" d="M24.09,19.38c5.71-.01,6.53,6.03,6,10.45-.22,1.84-2.4,1.96-2.73.54-.57-2.49,1.38-7.9-2.71-8.32-4.97-.52-3.29,5.43-3.65,8.18-.19,1.46-2.24,1.39-2.54.34-.2-.68-.14-5.34-.04-6.25.3-2.77,2.92-4.93,5.67-4.94Z"/>
  <path class="st2" d="M40.57,19.31h3.07c.84,0,1.5.79,1.25,1.63-.05.16-.6.73-.66.73h-3.66v8.95c0,.52-1.9,1.28-2.42.05l-.15-8.8c-3.29.36-3.51-2.94,0-2.36-.14-2.41.25-5.09,2.92-5.84,1.07-.3,4.28-.1,4.2,1.4-.09,1.69-2.12.77-3.05.91-1.57.24-1.55,2.11-1.5,3.33Z"/>
  <path class="st1" d="M16.01,19.54c.83.48.7,4.57.63,5.56-.28,3.99-2.34,6.59-6.63,6.2-1.9-.17-3.72-1.54-4.42-3.28-.55-1.38-.63-5.91-.43-7.46s2.38-1.52,2.58.2c.32,2.72-1.27,8.18,3.26,7.98,4.77-.21,2.32-5.95,3.15-8.48.21-.65,1.33-1.03,1.85-.73Z"/>
  <path class="st2" d="M80.27,19.55c1.32-.2,5.55-.17,4.5,2.11-.64,1.4-2.74.14-4.21.53-2.98.78-2.9,6.28.86,6.56,1.07.08,2.72-1.02,3.31.24.91,1.91-2.22,2.39-3.51,2.31-6.91-.43-7.04-10.81-.94-11.75Z"/>
  <path class="st3" d="M50.21,19.36c5.57-1.02,9.41,6.59,4.9,10.57-4.27,3.76-10.72.09-9.97-5.59.07-.56.48-2,1.24-1.85,1.25.24.16,2.05.15,2.84-.08,3.98,5.28,6.17,7.97,3.01,2.38-2.8.54-7.34-3.16-7.46-.71-.02-1.75.58-2.03-.33-.25-.82.17-1.05.9-1.19Z"/>
  <path class="st5" d="M32.21,19.54c1.01-.3,1.72.25,1.84,1.24.21,1.76.25,7.75-.02,9.43s-2.55,1.69-2.76-.18c-.2-1.73-.25-7.59.02-9.24.07-.43.49-1.12.92-1.25Z"/>
  <path class="st5" d="M72.56,19.54c1.07-.24,1.72.41,1.84,1.43.21,1.8.22,7.27-.02,9.03-.28,1.97-2.54,1.86-2.76.02-.2-1.77-.25-7.75.02-9.43.09-.54.37-.93.92-1.05Z"/>
  <path class="st6" d="M51.6,22.11c1.26,1.26-1.76,1.39-2.17,2.36-1.02,2.37,1.94,3.84,3.21,2.02.39-.55.19-1.26,1.1-1.28,1.57-.03.41,2.15-.22,2.75-2.83,2.71-7.44-.93-5.41-4.39.49-.83,2.69-2.24,3.48-1.45Z"/>
  <path class="st4" d="M72.56,15.41c2.32-.5,2.72,2.67.9,3.07-2.32.5-2.72-2.67-.9-3.07Z"/>
  <path class="st4" d="M32.21,15.41c1.97-.59,2.84,2.27,1.05,2.83-2.07.65-2.73-2.33-1.05-2.83Z"/>
  <path class="st8" d="M54.19,23.27c.5.3.19,2.02-.96,1.45-.94-.47-.15-2.12.96-1.45Z"/>
  <path class="st0" d="M46.75,22.2c-.47-.46-.1-1.34.64-1.34,1.48-.02.43,2.39-.64,1.34Z"/>
</svg>