<svg width="400" height="400" viewBox="0 0 400 400" fill="none" xmlns="http://www.w3.org/2000/svg">
<circle cx="200" cy="200" r="139" fill="#EDF3FB"/>
<path d="M234.165 96.5C234.034 115.901 226.27 134.48 212.541 148.208C198.695 162.054 179.915 169.833 160.333 169.833C140.752 169.833 121.972 162.054 108.125 148.208C94.3967 134.48 86.6329 115.901 86.5017 96.5L234.165 96.5Z" stroke="#61BFAD"/>
<path d="M234.165 170.833C234.034 190.235 226.27 208.813 212.541 222.542C198.695 236.388 179.915 244.167 160.333 244.167C140.752 244.167 121.972 236.388 108.125 222.542C94.3967 208.813 86.6329 190.235 86.5017 170.834L234.165 170.833Z" stroke="#61BFAD"/>
<path d="M234.165 245.167C234.034 264.568 226.27 283.146 212.541 296.875C198.695 310.721 179.915 318.5 160.333 318.5C140.752 318.5 121.972 310.721 108.125 296.875C94.3967 283.146 86.6329 264.568 86.5017 245.167L234.165 245.167Z" stroke="#61BFAD"/>
<path d="M86.5 170.333C86.5 129.556 119.556 96.5 160.333 96.5C201.11 96.5 234.167 129.556 234.167 170.333V318.5H86.5V170.333Z" stroke="#61BFAD"/>
<path d="M86.5 244.667C86.5 203.89 119.556 170.833 160.333 170.833C201.11 170.833 234.167 203.89 234.167 244.667V318.5H86.5V244.667Z" stroke="#61BFAD"/>
<path d="M86.5017 318.5C86.7706 277.953 119.723 245.167 160.333 245.167C200.944 245.167 233.896 277.953 234.165 318.5H86.5017Z" stroke="#61BFAD"/>
<g clip-path="url(#clip0_4410_3620)">
<path d="M125.83 192.767L85.4353 199.07L171.417 111.821L211.811 105.518L125.83 192.767Z" fill="#E8EAEE"/>
<path d="M184.637 261.84L144.243 268.142L146.415 205.68L186.81 199.377L184.637 261.84Z" fill="url(#paint0_radial_4410_3620)"/>
<path d="M228.017 266.271L187.623 272.574L144.243 268.142L184.637 261.839L228.017 266.271Z" fill="url(#paint1_radial_4410_3620)"/>
<path d="M259.295 242.032L218.9 248.335L189.783 210.121L230.177 203.819L259.295 242.032Z" fill="url(#paint2_radial_4410_3620)"/>
<g style="mix-blend-mode:multiply">
<path opacity="0.01" d="M186.81 199.377L170.506 264.043L144.243 268.142L146.415 205.68L186.81 199.377Z" fill="#F7F9FD"/>
<path opacity="0.03" d="M186.81 199.377L169.809 264.148L144.243 268.142L146.415 205.68L186.81 199.377Z" fill="#EFF2FB"/>
<path opacity="0.04" d="M186.81 199.377L169.122 264.266L144.243 268.142L146.415 205.68L186.81 199.377Z" fill="#E6ECF9"/>
<path opacity="0.05" d="M186.81 199.377L168.425 264.371L144.243 268.142L146.415 205.68L186.81 199.377Z" fill="#DEE5F7"/>
<path opacity="0.06" d="M186.81 199.377L167.741 264.467L144.243 268.142L146.415 205.68L186.81 199.377Z" fill="#D6DFF5"/>
<path opacity="0.08" d="M186.81 199.377L167.054 264.585L144.243 268.142L146.415 205.68L186.81 199.377Z" fill="#CED8F3"/>
<path opacity="0.09" d="M186.81 199.377L166.357 264.69L144.243 268.142L146.415 205.68L186.81 199.377Z" fill="#C5D2F1"/>
<path opacity="0.1" d="M186.81 199.377L165.66 264.796L144.243 268.142L146.415 205.68L186.81 199.377Z" fill="#BDCCF0"/>
<path opacity="0.12" d="M186.81 199.377L164.973 264.913L144.243 268.142L146.415 205.68L186.81 199.377Z" fill="#B5C5EE"/>
<path opacity="0.13" d="M186.81 199.377L164.277 265.019L144.243 268.142L146.415 205.68L186.81 199.377Z" fill="#CFD1D5"/>
<path opacity="0.14" d="M186.81 199.377L163.592 265.115L144.243 268.142L146.415 205.68L186.81 199.377Z" fill="#B0B0B0"/>
<path opacity="0.15" d="M186.81 199.377L162.905 265.232L144.243 268.142L146.415 205.68L186.81 199.377Z" fill="#C3C3C3"/>
<path opacity="0.17" d="M186.81 199.377L162.208 265.338L144.243 268.142L146.415 205.68L186.81 199.377Z" fill="#BEBEBE"/>
<path opacity="0.18" d="M186.81 199.377L161.512 265.443L144.243 268.142L146.415 205.68L186.81 199.377Z" fill="#C8C9CA"/>
<path opacity="0.19" d="M186.81 199.377L160.825 265.561L144.243 268.142L146.415 205.68L186.81 199.377Z" fill="#D9D9D9"/>
<path opacity="0.21" d="M186.81 199.377L160.128 265.666L144.243 268.142L146.415 205.68L186.81 199.377Z" fill="#D4D4D4"/>
<path opacity="0.22" d="M186.81 199.377L159.444 265.763L144.243 268.142L146.415 205.68L186.81 199.377Z" fill="#D3D5DA"/>
<path opacity="0.23" d="M186.81 199.377L158.756 265.88L144.243 268.142L146.415 205.68L186.81 199.377Z" fill="#D5D5D5"/>
<path opacity="0.25" d="M186.81 199.377L158.06 265.986L144.243 268.142L146.415 205.68L186.81 199.377Z" fill="#D9D9D9"/>
<path opacity="0.26" d="M186.81 199.377L157.363 266.091L144.243 268.142L146.415 205.68L186.81 199.377Z" fill="#DFE0E1"/>
<path opacity="0.27" d="M186.81 199.377L156.676 266.209L144.243 268.142L146.415 205.68L186.81 199.377Z" fill="#CFD0D4"/>
<path opacity="0.28" d="M186.81 199.377L155.979 266.314L144.243 268.142L146.415 205.68L186.81 199.377Z" fill="#BEBEBE"/>
<path opacity="0.3" d="M186.81 199.377L155.295 266.41L144.243 268.142L146.415 205.68L186.81 199.377Z" fill="#C1C1C1"/>
<path opacity="0.31" d="M186.81 199.377L154.608 266.528L144.243 268.142L146.415 205.68L186.81 199.377Z" fill="#B0B2B5"/>
<path opacity="0.32" d="M186.81 199.377L153.911 266.633L144.243 268.142L146.415 205.68L186.81 199.377Z" fill="#CDCDCD"/>
<path opacity="0.34" d="M186.81 199.377L153.215 266.739L144.243 268.142L146.415 205.68L186.81 199.377Z" fill="#CACBCF"/>
<path opacity="0.35" d="M186.81 199.377L152.527 266.856L144.243 268.142L146.415 205.68L186.81 199.377Z" fill="#B5B5B6"/>
<path opacity="0.36" d="M186.81 199.377L151.831 266.962L144.243 268.142L146.415 205.68L186.81 199.377Z" fill="#C1C1C1"/>
<path opacity="0.37" d="M186.81 199.377L151.147 267.058L144.243 268.142L146.415 205.68L186.81 199.377Z" fill="#C9CBCF"/>
<path opacity="0.39" d="M186.81 199.377L150.459 267.176L144.243 268.142L146.415 205.68L186.81 199.377Z" fill="#E1E1E1"/>
<path opacity="0.4" d="M186.81 199.377L149.763 267.281L144.243 268.142L146.415 205.68L186.81 199.377Z" fill="#D7D9DD"/>
</g>
<path d="M155.266 231.398L114.872 237.7L85.4354 199.07L125.83 192.767L155.266 231.398Z" fill="url(#paint3_radial_4410_3620)"/>
<path d="M125.83 192.767L211.811 105.518L291.181 209.672L259.283 242.041L230.174 203.84L228.014 266.293L184.634 261.861L186.807 199.399L155.254 231.407L125.818 192.777L125.83 192.767ZM209.465 176.643L209.237 176.624L209.353 176.496L209.465 176.643Z" fill="#FFFCFC"/>
</g>
<defs>
<radialGradient id="paint0_radial_4410_3620" cx="0" cy="0" r="1" gradientUnits="userSpaceOnUse" gradientTransform="translate(167.639 310.713) rotate(-37.4169) scale(126.535 126.535)">
<stop stop-color="#FAFEFF"/>
<stop offset="1" stop-color="#E9E9EA"/>
</radialGradient>
<radialGradient id="paint1_radial_4410_3620" cx="0" cy="0" r="1" gradientUnits="userSpaceOnUse" gradientTransform="translate(182.842 183.778) rotate(-37.4169) scale(104.388 104.388)">
<stop stop-color="#E6E6E6"/>
<stop offset="1" stop-color="#D5D5D5"/>
</radialGradient>
<radialGradient id="paint2_radial_4410_3620" cx="0" cy="0" r="1" gradientUnits="userSpaceOnUse" gradientTransform="translate(214.066 318.721) rotate(-37.4169) scale(115.408 115.408)">
<stop stop-color="white"/>
<stop offset="1" stop-color="#EBEBEB"/>
</radialGradient>
<radialGradient id="paint3_radial_4410_3620" cx="0" cy="0" r="1" gradientUnits="userSpaceOnUse" gradientTransform="translate(92.7322 104.649) rotate(-37.4169) scale(136.412 136.412)">
<stop stop-color="#FDFEFF"/>
<stop offset="1" stop-color="#E6E7EA"/>
</radialGradient>
<clipPath id="clip0_4410_3620">
<rect width="157.308" height="157.061" fill="white" transform="translate(75 185.582) rotate(-37.4169)"/>
</clipPath>
</defs>
</svg>
