<svg width="400" height="400" viewBox="0 0 400 400" fill="none" xmlns="http://www.w3.org/2000/svg">
<circle cx="200" cy="200" r="139" fill="#EDF3FB"/>
<path d="M208.135 189.75C208.135 159.236 232.871 134.5 263.385 134.5C293.899 134.5 318.635 159.236 318.635 189.75V356.5H208.135V189.75Z" stroke="#61BFAD"/>
<path d="M209.949 356.5L318.635 246.716V356.5H209.949Z" stroke="#61BFAD"/>
<path d="M153.5 134.5H264V301.25C264 331.764 239.264 356.5 208.75 356.5C178.236 356.5 153.5 331.764 153.5 301.25V134.5Z" stroke="#61BFAD"/>
<path d="M263.293 134.5L153.5 244.293V134.5H263.293Z" stroke="#61BFAD"/>
<path d="M275.693 262.182C285.936 272.426 291.742 286.277 291.873 300.75L181.377 300.75C181.508 286.277 187.314 272.426 197.557 262.182C207.919 251.821 221.972 246 236.625 246C251.278 246 265.331 251.821 275.693 262.182Z" stroke="#61BFAD"/>
<path d="M275.693 228.818C285.936 218.574 291.742 204.723 291.873 190.25L181.377 190.25C181.508 204.723 187.314 218.574 197.557 228.818C207.919 239.179 221.972 245 236.625 245C251.278 245 265.331 239.179 275.693 228.818Z" stroke="#61BFAD"/>
<path opacity="0.2" d="M96.08 243.544L113.473 129.909C114.587 122.633 121.388 117.638 128.663 118.752L295.666 144.314C302.942 145.427 307.937 152.228 306.823 159.503L289.43 273.139C288.316 280.414 281.515 285.409 274.24 284.296L107.237 258.735C99.9613 257.621 94.9663 250.82 96.08 243.544Z" fill="black" fill-opacity="0.7"/>
<path d="M115.163 125.585L113.649 135.471L110.012 134.915C109.665 134.861 109.427 134.538 109.48 134.192L110.802 125.56C110.855 125.213 111.179 124.975 111.525 125.028L115.163 125.585Z" fill="#0E1D61" stroke="white" stroke-miterlimit="10" stroke-linecap="round" stroke-linejoin="round"/>
<path d="M140.701 121.69L130.814 120.176L131.371 116.539C131.424 116.192 131.748 115.954 132.094 116.008L140.727 117.329C141.073 117.382 141.311 117.705 141.258 118.052L140.701 121.69Z" fill="#0E1D61" stroke="white" stroke-miterlimit="10" stroke-linecap="round" stroke-linejoin="round"/>
<path d="M152.462 123.49L142.575 121.976L143.132 118.339C143.185 117.993 143.509 117.754 143.855 117.808L152.488 119.129C152.834 119.183 153.072 119.506 153.019 119.852L152.462 123.49Z" fill="#0E1D61" stroke="white" stroke-miterlimit="10" stroke-linecap="round" stroke-linejoin="round"/>
<path d="M94.1553 240.978L111.548 127.343C112.662 120.067 119.463 115.072 126.738 116.186L293.741 141.748C301.017 142.861 306.012 149.662 304.898 156.938L287.505 270.573C286.392 277.848 279.591 282.843 272.316 281.73L105.312 256.169C98.0367 255.055 93.0416 248.254 94.1553 240.978Z" fill="#0E1D61" stroke="white" stroke-miterlimit="10" stroke-linecap="round" stroke-linejoin="round"/>
<path d="M272.973 280.326L105.105 254.632C98.8804 253.679 94.6064 247.861 95.5591 241.636L113.084 127.136C114.037 120.911 119.856 116.637 126.08 117.59L293.948 143.283C300.173 144.236 304.447 150.055 303.494 156.28L285.97 270.78C285.016 277.005 279.197 281.279 272.973 280.326Z" fill="#E8EAEE" stroke="white" stroke-miterlimit="10" stroke-linecap="round" stroke-linejoin="round"/>
<path d="M107.141 184.817C107.087 185.174 106.753 185.419 106.397 185.365C106.04 185.31 105.795 184.976 105.849 184.62C105.904 184.263 106.238 184.018 106.594 184.073C106.951 184.127 107.196 184.461 107.141 184.817Z" fill="#C9C7C7" stroke="white" stroke-miterlimit="10" stroke-linecap="round" stroke-linejoin="round"/>
<path d="M106.831 190.788C106.726 191.471 106.089 191.939 105.406 191.835C104.723 191.731 104.255 191.093 104.36 190.411C104.464 189.728 105.102 189.26 105.785 189.364C106.467 189.468 106.935 190.106 106.831 190.788Z" fill="white"/>
<path d="M109.031 176.411C108.927 177.094 108.289 177.562 107.607 177.458C106.924 177.354 106.456 176.716 106.56 176.033C106.664 175.351 107.302 174.882 107.984 174.986C108.668 175.09 109.136 175.729 109.031 176.411Z" fill="white"/>
<path d="M105.87 194.826C105.794 195.323 105.329 195.665 104.831 195.589C104.334 195.513 103.992 195.048 104.068 194.55C104.145 194.052 104.609 193.711 105.107 193.788C105.605 193.864 105.946 194.328 105.87 194.826Z" fill="white"/>
<path d="M299.282 154.305L281.363 271.4C280.889 274.473 278.021 276.583 274.948 276.115L134.315 254.591L131.268 254.123L119.804 252.365L114.254 251.518L106.235 250.293L104.484 250.023C101.411 249.555 99.2998 246.681 99.7682 243.608L117.693 126.514C118.161 123.441 121.035 121.33 124.108 121.805L176.606 129.837L184.548 131.056L192.137 132.217L201.889 133.705L205.417 134.244L294.573 147.89C297.646 148.365 299.75 151.232 299.282 154.305Z" fill="white"/>
<g opacity="0.1">
<path d="M167.456 253.506L107.821 244.379C107.014 244.255 106.457 243.497 106.581 242.69L112.504 203.989C112.628 203.181 113.386 202.624 114.193 202.748L173.828 211.876C174.636 212 175.192 212.758 175.069 213.565L169.145 252.266C169.022 253.074 168.264 253.63 167.456 253.506ZM114.115 203.259C113.589 203.179 113.096 203.54 113.015 204.067L107.092 242.768C107.012 243.294 107.374 243.787 107.9 243.868L167.534 252.996C168.06 253.076 168.554 252.714 168.634 252.188L174.557 213.487C174.638 212.961 174.275 212.468 173.75 212.387L114.115 203.259Z" fill="#0E1D61"/>
</g>
<path opacity="0.4" d="M132.101 226.688L145.457 234.263C146.311 232.698 146.913 230.962 147.198 229.099C147.842 224.892 146.754 220.82 144.471 217.602L132.101 226.688Z" fill="#0E1D61"/>
<path opacity="0.6" d="M132.229 225.952L144.165 217.186C142.574 215.092 140.463 213.394 137.985 212.303L135.634 217.88L132.229 225.952Z" fill="#0E1D61"/>
<path d="M134.264 211.19L132.197 224.697L137.507 212.103C136.482 211.691 135.397 211.382 134.264 211.19Z" fill="#0E1D61"/>
<path opacity="0.1" d="M131.394 226.53L133.753 211.112C125.251 209.951 117.358 215.818 116.055 224.333C115.631 227.105 115.961 229.818 116.886 232.267L131.394 226.53Z" fill="#0E1D61"/>
<path opacity="0.2" d="M129.243 242.287C135.799 243.291 142.025 240.095 145.2 234.711L131.607 227.002L117.072 232.75C119.115 237.663 123.599 241.423 129.243 242.287Z" fill="#0E1D61"/>
<path d="M155.994 219.998L154.222 219.726C154.003 219.693 153.852 219.488 153.886 219.268L154.158 217.496C154.191 217.277 154.396 217.126 154.616 217.16L156.388 217.431C156.607 217.465 156.758 217.67 156.724 217.889L156.452 219.661C156.418 219.88 156.214 220.031 155.994 219.998Z" fill="#0E1D61"/>
<path d="M166.005 219.861L158.274 218.678C158.111 218.653 157.999 218.5 158.024 218.338C158.049 218.175 158.201 218.063 158.364 218.088L166.095 219.272C166.258 219.297 166.37 219.449 166.345 219.612C166.32 219.775 166.168 219.886 166.005 219.861Z" fill="#0E1D61"/>
<path d="M163.45 220.783L158.077 219.961C157.914 219.936 157.803 219.784 157.828 219.621C157.853 219.458 158.005 219.346 158.168 219.371L163.54 220.194C163.703 220.219 163.815 220.371 163.79 220.534C163.765 220.697 163.613 220.808 163.45 220.783Z" fill="#0E1D61"/>
<path opacity="0.6" d="M155.114 225.745L153.342 225.473C153.123 225.44 152.972 225.235 153.006 225.015L153.277 223.243C153.311 223.024 153.516 222.873 153.735 222.907L155.507 223.179C155.727 223.212 155.878 223.417 155.844 223.637L155.572 225.408C155.539 225.628 155.334 225.779 155.114 225.745Z" fill="#0E1D61"/>
<path d="M165.125 225.609L157.394 224.426C157.231 224.401 157.12 224.249 157.145 224.086C157.17 223.923 157.322 223.811 157.485 223.836L165.216 225.019C165.379 225.044 165.49 225.196 165.465 225.359C165.44 225.523 165.288 225.634 165.125 225.609Z" fill="#0E1D61"/>
<path d="M162.57 226.531L157.198 225.709C157.035 225.684 156.923 225.532 156.948 225.369C156.973 225.206 157.125 225.094 157.288 225.119L162.661 225.942C162.824 225.967 162.935 226.119 162.91 226.282C162.885 226.445 162.733 226.556 162.57 226.531Z" fill="#0E1D61"/>
<path opacity="0.4" d="M154.234 231.493L152.463 231.221C152.243 231.188 152.092 230.983 152.126 230.763L152.398 228.991C152.431 228.772 152.636 228.621 152.856 228.655L154.628 228.927C154.847 228.96 154.998 229.165 154.964 229.385L154.693 231.157C154.659 231.375 154.454 231.526 154.234 231.493Z" fill="#0E1D61"/>
<path d="M164.246 231.357L156.515 230.173C156.352 230.148 156.24 229.996 156.265 229.833C156.29 229.67 156.442 229.559 156.605 229.584L164.336 230.767C164.499 230.792 164.611 230.944 164.586 231.107C164.561 231.27 164.409 231.382 164.246 231.357Z" fill="#0E1D61"/>
<path d="M161.691 232.279L156.318 231.456C156.155 231.431 156.044 231.279 156.069 231.116C156.094 230.953 156.246 230.842 156.409 230.867L161.781 231.689C161.944 231.714 162.056 231.866 162.031 232.029C162.006 232.192 161.853 232.304 161.691 232.279Z" fill="#0E1D61"/>
<path opacity="0.2" d="M153.355 237.24L151.583 236.968C151.364 236.935 151.213 236.73 151.247 236.51L151.518 234.738C151.552 234.519 151.757 234.368 151.976 234.402L153.748 234.674C153.968 234.707 154.119 234.912 154.085 235.132L153.813 236.904C153.779 237.123 153.574 237.274 153.355 237.24Z" fill="#0E1D61"/>
<path d="M163.366 237.105L155.635 235.921C155.472 235.896 155.36 235.744 155.385 235.581C155.41 235.418 155.562 235.307 155.725 235.332L163.457 236.515C163.62 236.54 163.731 236.692 163.706 236.855C163.681 237.018 163.529 237.13 163.366 237.105Z" fill="#0E1D61"/>
<path d="M160.811 238.027L155.439 237.204C155.276 237.179 155.164 237.027 155.189 236.864C155.214 236.701 155.366 236.59 155.529 236.615L160.901 237.437C161.064 237.462 161.176 237.614 161.151 237.777C161.126 237.94 160.974 238.052 160.811 238.027Z" fill="#0E1D61"/>
<g opacity="0.1">
<path d="M279.822 228.099L182.87 213.259C182.063 213.135 181.303 213.689 181.179 214.497L180.771 217.165L180.692 217.676L180.141 221.274L180.063 221.786L179.513 225.38L179.435 225.891L178.885 229.485L178.807 229.996L178.256 233.595L178.178 234.107L177.628 237.7L177.55 238.212L177 241.806L176.922 242.317L176.371 245.916L176.293 246.427L175.743 250.021L175.665 250.533L175.256 253.201C175.132 254.009 175.691 254.769 176.499 254.893L273.45 269.732C274.258 269.856 275.013 269.296 275.137 268.489L275.546 265.821L275.624 265.309L276.174 261.715L276.252 261.204L276.803 257.606L276.881 257.094L277.431 253.5L277.51 252.989L278.059 249.395L278.138 248.884L278.689 245.285L278.767 244.774L279.317 241.18L279.395 240.669L279.945 237.075L280.023 236.564L280.574 232.965L280.652 232.454L281.061 229.786C281.184 228.977 280.63 228.222 279.822 228.099ZM274.626 268.408C274.545 268.935 274.05 269.298 273.529 269.218L176.577 254.379C176.05 254.298 175.686 253.803 175.767 253.277L176.176 250.608L275.034 265.74L274.626 268.408ZM275.112 265.228L176.254 250.097L176.803 246.503L275.662 261.635L275.112 265.228ZM275.741 261.123L176.882 245.992L177.433 242.393L276.291 257.524L275.741 261.123ZM276.369 257.014L177.511 241.882L178.061 238.288L276.919 253.42L276.369 257.014ZM276.998 252.909L178.14 237.777L178.689 234.184L277.548 249.315L276.998 252.909ZM277.626 248.804L178.768 233.673L179.319 230.074L278.177 245.206L277.626 248.804ZM278.256 244.694L179.397 229.563L179.947 225.969L278.805 241.1L278.256 244.694ZM278.884 240.589L180.025 225.458L180.575 221.864L279.434 236.995L278.884 240.589ZM279.512 236.484L180.653 221.353L181.204 217.754L280.063 232.886L279.512 236.484ZM181.283 217.243L181.691 214.575C181.772 214.048 182.266 213.689 182.793 213.77L279.745 228.61C280.266 228.689 280.631 229.18 280.55 229.706L280.141 232.374L181.283 217.243Z" fill="#0E1D61"/>
</g>
<path opacity="0.5" d="M284.722 202.434L281.827 221.348C281.733 221.961 281.161 222.381 280.543 222.287L115.236 196.985C114.622 196.892 114.202 196.319 114.296 195.706L114.684 193.176C114.684 193.176 122.454 186.915 127.315 187.659C133.061 188.539 134.08 191.797 139.191 192.579C144.298 193.361 149.946 181.481 154.578 182.19C157.082 182.574 157.724 184.503 158.954 186.271C159.866 187.593 161.117 188.82 163.702 189.263C163.762 189.278 163.829 189.287 163.89 189.297C170.178 190.259 178.687 156.881 187.337 158.205C191.16 158.79 192.706 166.158 193.852 174.291C195.308 184.569 196.132 196.074 200.139 196.687C207.311 197.785 209.747 183.237 216.418 184.258C220.61 184.899 222.136 192.666 225.662 198.814C227.747 202.456 230.541 205.53 235.009 206.214C239.068 206.835 241.781 205.89 243.891 204.409C248.027 201.515 249.877 196.577 255.05 197.369C258.112 197.838 259.231 200.201 260.371 202.426C261.366 204.373 262.381 206.213 264.743 206.574C267.519 206.999 269.885 203.024 272.392 199.495C274.453 196.593 276.604 193.993 279.159 194.384C281.772 194.784 283.311 197.918 284.088 200.155C284.528 201.442 284.722 202.434 284.722 202.434Z" fill="#0E1D61"/>
<path d="M285.505 197.322L281.828 221.348C281.734 221.961 281.162 222.381 280.543 222.286L115.236 196.985C114.622 196.891 114.202 196.319 114.297 195.706L114.486 194.469C114.725 194.239 118.615 190.565 122.571 191.171C126.656 191.796 126.666 195.454 132.366 196.327C138.065 197.199 139.723 192.693 147.81 193.93C155.903 195.169 155.864 200.818 164.222 202.098C172.58 203.377 174.307 196.605 180.242 197.513C186.172 198.421 185.783 201.882 189.152 202.398C192.52 202.914 194.492 197.623 198.643 198.258C202.794 198.893 205.967 207.592 210.644 208.308C213.931 208.811 219.739 202.308 225.663 198.815C228.169 197.341 230.698 196.405 233.065 196.767C237.947 197.514 240.795 201.325 243.891 204.409C245.838 206.35 247.888 208.003 250.597 208.417C254.467 209.01 257.404 205.509 260.371 202.427C262.784 199.919 265.214 197.685 268.174 198.138C270.06 198.427 271.376 198.921 272.392 199.495C274.945 200.932 275.632 202.868 278.704 203.338C282.408 203.905 285.505 197.322 285.505 197.322Z" fill="#0E1D61"/>
<path opacity="0.2" d="M191.646 230.681L189.759 230.392L187.682 243.965L189.569 244.254L191.646 230.681Z" fill="#0E1D61"/>
<path d="M191.333 232.726L189.446 232.437L188.468 238.826L190.355 239.115L191.333 232.726Z" fill="#0E1D61"/>
<path opacity="0.2" d="M186.874 233.456L184.987 233.167L182.91 246.74L184.797 247.029L186.874 233.456Z" fill="#0E1D61"/>
<path d="M184.442 236.743L183.464 243.132L185.351 243.421L186.329 237.032L184.442 236.743Z" fill="#0E1D61"/>
<path opacity="0.2" d="M183.024 230.202L181.136 229.913L179.059 243.486L180.946 243.775L183.024 230.202Z" fill="#0E1D61"/>
<path d="M182.242 235.313L180.355 235.024L179.377 241.414L181.264 241.703L182.242 235.313Z" fill="#0E1D61"/>
<path opacity="0.2" d="M195.486 234.013L193.599 233.724L191.521 247.297L193.409 247.586L195.486 234.013Z" fill="#0E1D61"/>
<path d="M195.179 236.055L193.292 235.766L192.314 242.155L194.201 242.444L195.179 236.055Z" fill="#0E1D61"/>
<path opacity="0.2" d="M200.348 230.649L198.461 230.36L196.383 243.933L198.27 244.222L200.348 230.649Z" fill="#0E1D61"/>
<path d="M200.114 232.181L198.227 231.892L197.249 238.282L199.136 238.57L200.114 232.181Z" fill="#0E1D61"/>
<path opacity="0.2" d="M204.06 234.803L202.173 234.514L200.095 248.087L201.982 248.376L204.06 234.803Z" fill="#0E1D61"/>
<path d="M203.983 235.314L202.095 235.025L201.117 241.414L203.005 241.703L203.983 235.314Z" fill="#0E1D61"/>
<path opacity="0.2" d="M209.395 228.357L207.508 228.069L205.43 241.642L207.317 241.931L209.395 228.357Z" fill="#0E1D61"/>
<path d="M209.318 228.868L207.43 228.579L206.452 234.968L208.34 235.257L209.318 228.868Z" fill="#0E1D61"/>
<path opacity="0.2" d="M212.336 237.554L210.449 237.265L208.371 250.838L210.259 251.127L212.336 237.554Z" fill="#0E1D61"/>
<path d="M212.022 239.599L210.135 239.311L209.157 245.7L211.044 245.989L212.022 239.599Z" fill="#0E1D61"/>
<path opacity="0.2" d="M216.464 238.997L214.577 238.708L212.499 252.281L214.386 252.57L216.464 238.997Z" fill="#0E1D61"/>
<path d="M215.68 244.109L213.793 243.82L212.815 250.21L214.702 250.498L215.68 244.109Z" fill="#0E1D61"/>
<path opacity="0.2" d="M222.022 231.124L220.135 230.835L218.057 244.408L219.944 244.697L222.022 231.124Z" fill="#0E1D61"/>
<path d="M221.156 236.752L219.268 236.463L218.29 242.852L220.178 243.141L221.156 236.752Z" fill="#0E1D61"/>
<path opacity="0.2" d="M225.352 237.744L223.465 237.455L221.387 251.028L223.274 251.317L225.352 237.744Z" fill="#0E1D61"/>
<path d="M224.96 240.301L223.072 240.012L222.094 246.401L223.982 246.69L224.96 240.301Z" fill="#0E1D61"/>
<path opacity="0.2" d="M230.141 234.854L228.254 234.565L226.176 248.138L228.064 248.427L230.141 234.854Z" fill="#0E1D61"/>
<path d="M229.828 236.898L227.941 236.61L226.963 242.999L228.85 243.288L229.828 236.898Z" fill="#0E1D61"/>
<path opacity="0.2" d="M235.323 229.41L233.435 229.121L231.358 242.694L233.245 242.983L235.323 229.41Z" fill="#0E1D61"/>
<path d="M235.324 229.409L233.436 229.12L232.458 235.509L234.346 235.798L235.324 229.409Z" fill="#0E1D61"/>
<path opacity="0.2" d="M238.263 238.651L236.376 238.363L234.298 251.936L236.186 252.224L238.263 238.651Z" fill="#0E1D61"/>
<path d="M238.022 240.19L236.135 239.901L235.157 246.29L237.044 246.579L238.022 240.19Z" fill="#0E1D61"/>
<path opacity="0.2" d="M241.591 245.272L239.704 244.983L237.626 258.556L239.513 258.845L241.591 245.272Z" fill="#0E1D61"/>
<path d="M241.357 246.805L239.47 246.516L238.492 252.905L240.379 253.194L241.357 246.805Z" fill="#0E1D61"/>
<path opacity="0.2" d="M246.941 238.737L245.054 238.448L242.976 252.022L244.863 252.31L246.941 238.737Z" fill="#0E1D61"/>
<path d="M246.165 243.845L244.277 243.556L243.299 249.945L245.187 250.234L246.165 243.845Z" fill="#0E1D61"/>
<path opacity="0.2" d="M252.363 231.716L250.476 231.427L248.399 245L250.286 245.289L252.363 231.716Z" fill="#0E1D61"/>
<path d="M251.424 237.851L249.536 237.562L248.558 243.951L250.446 244.24L251.424 237.851Z" fill="#0E1D61"/>
<path opacity="0.2" d="M255.436 240.039L253.549 239.75L251.472 253.323L253.359 253.612L255.436 240.039Z" fill="#0E1D61"/>
<path d="M255.133 242.077L253.245 241.788L252.267 248.177L254.155 248.466L255.133 242.077Z" fill="#0E1D61"/>
<path opacity="0.2" d="M259.34 242.947L257.452 242.658L255.375 256.231L257.262 256.52L259.34 242.947Z" fill="#0E1D61"/>
<path d="M258.481 248.57L256.593 248.281L255.615 254.67L257.503 254.959L258.481 248.57Z" fill="#0E1D61"/>
<path opacity="0.2" d="M264.237 239.363L262.35 239.074L260.273 252.647L262.16 252.936L264.237 239.363Z" fill="#0E1D61"/>
<path d="M264.236 239.364L262.349 239.075L261.371 245.465L263.258 245.754L264.236 239.364Z" fill="#0E1D61"/>
<path opacity="0.2" d="M267.837 244.248L265.95 243.959L263.872 257.532L265.76 257.821L267.837 244.248Z" fill="#0E1D61"/>
<path d="M267.68 245.271L265.793 244.982L264.815 251.371L266.702 251.66L267.68 245.271Z" fill="#0E1D61"/>
<path opacity="0.2" d="M272.367 243.067L270.479 242.778L268.402 256.351L270.289 256.64L272.367 243.067Z" fill="#0E1D61"/>
<path d="M272.287 243.579L270.4 243.29L269.422 249.679L271.309 249.968L272.287 243.579Z" fill="#0E1D61"/>
<path opacity="0.2" d="M276.347 245.461L274.46 245.173L272.383 258.746L274.27 259.035L276.347 245.461Z" fill="#0E1D61"/>
<path d="M275.339 252.099L273.452 251.81L272.474 258.2L274.361 258.488L275.339 252.099Z" fill="#0E1D61"/>
<path d="M207.739 264.308L172.146 258.86L171.978 259.962L207.57 265.41L207.739 264.308Z" fill="#C9C7C7" stroke="white" stroke-miterlimit="10" stroke-linecap="round" stroke-linejoin="round"/>
</svg>
