<svg width="400" height="400" viewBox="0 0 400 400" fill="none" xmlns="http://www.w3.org/2000/svg">
<circle cx="200" cy="200" r="139" fill="#EDF3FB"/>
<rect x="44.0294" y="102.853" width="253.118" height="260.477" stroke="#61BFAD"/>
<path d="M44.0303 233.322C44.2916 161.378 100.915 103.131 170.798 102.854V233.322H44.0303Z" stroke="#61BFAD"/>
<path d="M170.377 233.322C170.639 161.378 227.261 103.131 297.145 102.854V233.322H170.377Z" stroke="#61BFAD"/>
<path d="M44.0303 363.33C44.2916 291.386 100.915 233.139 170.798 232.862V363.33H44.0303Z" stroke="#61BFAD"/>
<path d="M170.377 363.33C170.639 291.386 227.261 233.139 297.145 232.862V363.33H170.377Z" stroke="#61BFAD"/>
<path d="M178.393 155.455L166.361 116.967C166.384 116.973 166.413 116.993 166.443 117.012C167.382 117.555 175.446 122.188 183.283 126.714C191.022 131.166 198.578 135.523 198.911 135.718C199.227 135.884 199.507 136.147 199.736 136.511L207.318 148.082C208.088 149.256 209.475 149.652 210.427 148.973C214.229 146.318 218.097 144.065 221.952 142.3C222.966 141.825 224.211 140.352 224.727 138.95L215.239 118.915C215.762 117.528 221.829 93.1476 221.829 93.1476C221.859 93.1665 221.888 93.1864 221.918 93.2053C223.818 94.2983 254.252 111.805 254.443 111.915C254.615 112.019 254.753 112.195 254.865 112.389C264.217 117.789 280.635 127.236 281.033 127.449C281.439 127.674 281.829 128.094 282.093 128.677L288.766 143.422C289.377 144.798 289.213 146.713 288.402 147.698L272.487 166.967C271.67 167.973 271.175 170.079 271.296 171.721C271.459 173.595 271.524 175.525 271.529 177.509L288.451 187.256C289.171 187.612 289.456 188.68 289.095 189.901L281.767 214.55C281.335 216.032 280.134 217.424 279.086 217.681L262.194 221.75C261.145 222.005 259.795 223.263 259.171 224.544C256.717 229.438 253.968 234.17 250.997 238.646C250.251 239.775 249.999 241.888 250.447 243.397L254.856 258.327C255.303 259.834 254.972 261.811 254.099 262.719L235.708 282.13C235.17 282.697 234.445 282.84 233.808 282.565C233.406 282.41 216.629 272.691 216.629 272.691C214.61 273.876 212.575 274.94 210.54 275.875C209.533 276.328 208.285 277.801 207.757 279.211L199.306 301.914C198.768 303.31 197.494 304.541 196.442 304.633L178.748 306.388C178.486 306.411 178.254 306.361 178.062 306.25C177.465 305.915 146.652 288.166 145.512 287.499C145.498 287.507 145.498 287.507 145.49 287.493C145.467 287.487 145.467 287.487 145.467 287.487C145.458 287.472 145.458 287.472 145.451 287.459C145.45 287.424 145.488 287.363 145.528 287.304C145.365 287.214 145.217 287.116 145.041 287.034L145.033 287.019C135.83 281.72 119.868 272.521 118.869 271.938C118.846 271.932 118.839 271.919 118.817 271.912C119.642 270.921 160.618 231.941 159.572 231.883L144.533 231.038C144.397 231.025 144.274 231.004 144.157 230.96L128.391 221.908L111.395 212.129L111.43 212.128L150.729 203.603C142.071 196.089 170.069 151.393 178.393 155.455ZM203.867 250.746L228.619 167.419C224.498 167.831 220.223 169.378 216.017 171.845C216.03 170.273 215.951 168.737 215.779 167.292C214.515 167.874 213.214 168.553 211.876 169.325C193.997 179.648 179.521 204.725 179.52 225.366C179.524 226.872 179.59 228.323 179.707 229.672C181.113 229.08 182.504 228.369 183.891 227.552C183.814 242.329 191.351 251.976 203.867 250.746Z" fill="#DDDBDB"/>
<g opacity="0.15">
<path d="M178.393 155.455L166.361 116.967C166.384 116.973 166.413 116.993 166.443 117.012C167.382 117.555 175.446 122.188 183.283 126.714C191.022 131.166 198.578 135.523 198.911 135.718C199.227 135.884 199.507 136.147 199.736 136.511L207.318 148.082C208.088 149.256 209.475 149.652 210.427 148.973C214.229 146.318 218.097 144.065 221.952 142.3C222.966 141.825 224.211 140.352 224.727 138.95L215.239 118.915C215.762 117.528 221.829 93.1476 221.829 93.1476C221.859 93.1665 221.888 93.1864 221.918 93.2053C223.818 94.2983 254.252 111.805 254.443 111.915C254.615 112.019 254.753 112.195 254.865 112.389C264.217 117.789 280.635 127.236 281.033 127.449C281.439 127.674 281.829 128.094 282.093 128.677L288.766 143.422C289.377 144.798 289.213 146.713 288.402 147.698L272.487 166.967C271.67 167.973 271.175 170.079 271.296 171.721C271.459 173.595 271.524 175.525 271.529 177.509L288.451 187.256C289.171 187.612 289.456 188.68 289.095 189.901L281.767 214.55C281.335 216.032 280.134 217.424 279.086 217.681L262.194 221.75C261.145 222.005 259.795 223.263 259.171 224.544C256.717 229.438 253.968 234.17 250.997 238.646C250.251 239.775 249.999 241.888 250.447 243.397L254.856 258.327C255.303 259.834 254.972 261.811 254.099 262.719L235.708 282.13C235.17 282.697 234.445 282.84 233.808 282.565C233.406 282.41 216.629 272.691 216.629 272.691C214.61 273.876 212.575 274.94 210.54 275.875C209.533 276.328 208.285 277.801 207.757 279.211L199.306 301.914C198.768 303.31 197.494 304.541 196.442 304.633L178.748 306.388C178.486 306.411 178.254 306.361 178.062 306.25C177.465 305.915 146.652 288.166 145.512 287.499C145.498 287.507 145.498 287.507 145.49 287.493C145.467 287.487 145.467 287.487 145.467 287.487C145.458 287.472 145.458 287.472 145.451 287.459C145.45 287.424 145.488 287.363 145.528 287.304C145.365 287.214 145.217 287.116 145.041 287.034L145.033 287.019C135.83 281.72 119.868 272.521 118.869 271.938C118.846 271.932 118.839 271.919 118.817 271.912C119.642 270.921 160.618 231.941 159.572 231.883L144.533 231.038C144.397 231.025 144.274 231.004 144.157 230.96L128.391 221.908L111.395 212.129L111.43 212.128L150.729 203.603C142.071 196.089 170.069 151.393 178.393 155.455ZM203.867 250.746L228.619 167.419C224.498 167.831 220.223 169.378 216.017 171.845C216.03 170.273 215.951 168.737 215.779 167.292C214.515 167.874 213.214 168.553 211.876 169.325C193.997 179.648 179.521 204.725 179.52 225.366C179.524 226.872 179.59 228.323 179.707 229.672C181.113 229.08 182.504 228.369 183.891 227.552C183.814 242.329 191.351 251.976 203.867 250.746Z" fill="black" fill-opacity="0.6"/>
</g>
<path opacity="0.15" d="M181.345 142.761L202.847 141.255L207.319 148.079C208.089 149.254 209.475 149.648 210.427 148.97C212.42 147.578 214.433 146.305 216.452 145.145L225.17 166.363L224.49 168.235C221.678 168.997 218.835 170.194 216.018 171.844C216.031 170.272 215.953 168.736 215.78 167.291C214.516 167.873 213.216 168.551 211.878 169.324C193.998 179.646 179.523 204.724 179.521 225.365C179.525 226.871 179.592 228.322 179.708 229.671C181.115 229.079 182.507 228.367 183.892 227.55C183.869 232.177 184.59 236.299 185.979 239.743L185.399 240.43L150.542 241.401L150.435 241.297C155.971 235.868 159.905 231.898 159.571 231.879L144.533 231.034C144.397 231.02 144.274 231 144.157 230.956L128.39 221.904L111.395 212.126L111.431 212.125L150.73 203.6C142.071 196.091 170.07 151.395 178.393 155.456L176.067 148.015L181.345 142.761Z" fill="black" fill-opacity="0.6"/>
<path opacity="0.15" d="M160.369 254.882C160.369 254.882 153.569 273.797 147.501 288.646C146.389 288.004 145.665 287.586 145.509 287.495C145.495 287.503 145.495 287.503 145.487 287.489C145.464 287.482 145.464 287.482 145.464 287.482C145.456 287.468 145.456 287.468 145.448 287.455C145.447 287.42 145.486 287.361 145.525 287.3C145.362 287.21 145.214 287.112 145.038 287.03L145.03 287.015C135.827 281.716 119.865 272.517 118.866 271.934C118.843 271.928 118.836 271.915 118.814 271.908C119.303 271.322 133.809 257.473 145.381 246.226L160.369 254.882Z" fill="black" fill-opacity="0.6"/>
<path opacity="0.15" d="M208.722 277.516C208.326 278.044 207.97 278.621 207.753 279.204L199.301 301.907C198.764 303.304 197.489 304.535 196.438 304.627L178.744 306.381C178.482 306.404 178.25 306.355 178.058 306.243C177.843 306.124 173.769 303.777 168.575 300.787L155.228 289.273L170.541 255.472L208.722 277.516Z" fill="black" fill-opacity="0.6"/>
<path opacity="0.05" d="M203.867 250.746L205.032 246.823C214.526 256.848 227.555 270.707 227.555 270.707L222.067 275.833C219.044 274.087 216.622 272.684 216.622 272.684C214.604 273.869 212.568 274.933 210.534 275.868C209.942 276.135 209.284 276.767 208.72 277.515L170.54 255.473C170.54 255.473 181.713 236.467 182.754 236.471C182.997 236.471 183.834 236.507 184.955 236.552C187.425 246.057 194.129 251.703 203.867 250.746Z" fill="black" fill-opacity="0.6"/>
<path opacity="0.15" d="M213.093 219.692L250.252 241.146C250.191 241.921 250.244 242.715 250.445 243.39L254.853 258.319C255.301 259.827 254.969 261.803 254.096 262.711L240.684 276.866L209.971 253.599L210.288 229.133L213.093 219.692Z" fill="black" fill-opacity="0.6"/>
<path opacity="0.15" d="M224.223 202.084L235.418 184.111L259.82 177.802L283.897 207.374L281.766 214.544C281.333 216.027 280.133 217.419 279.085 217.676L262.193 221.745C261.61 221.887 260.947 222.351 260.353 222.944L224.223 202.084Z" fill="black" fill-opacity="0.6"/>
<path opacity="0.15" d="M271.442 169.569L230.693 146.043C230.693 146.043 251.247 125.335 260.738 115.776C269.826 121.014 280.711 127.276 281.034 127.447C281.439 127.672 281.829 128.092 282.093 128.675L288.766 143.42C289.377 144.796 289.213 146.71 288.402 147.696L272.487 166.965C272.004 167.556 271.639 168.534 271.442 169.569Z" fill="black" fill-opacity="0.6"/>
<path d="M145.467 287.48L159.297 281.298L198.105 303.705C197.576 304.222 196.979 304.575 196.436 304.63L178.745 306.383C178.484 306.408 178.251 306.356 178.054 306.241L177.978 306.198C176.412 305.288 145.471 287.484 145.467 287.48Z" fill="#DDDBDB"/>
<path d="M217.534 240.204L254.682 261.736C254.529 262.119 254.336 262.457 254.096 262.711L235.7 282.128C235.162 282.698 234.443 282.826 233.793 282.559C233.767 282.548 233.668 282.494 233.51 282.406L216.709 272.739C216.658 272.709 216.62 272.688 216.62 272.688L201.002 263.701L217.534 240.204Z" fill="#DDDBDB"/>
<path d="M280.471 216.738L248.003 197.889L255.914 168.517L288.454 187.252C289.166 187.614 289.45 188.677 289.087 189.895L281.759 214.554C281.518 215.377 281.031 216.15 280.471 216.738Z" fill="#DDDBDB"/>
<path d="M281.028 127.452C281.445 127.67 281.824 128.086 282.089 128.675L288.761 143.422C289.166 144.315 289.229 145.438 289 146.389L246.656 121.943L246.656 109.449L248.519 108.733C248.519 108.733 280.475 127.16 281.028 127.452Z" fill="#DDDBDB"/>
<path opacity="0.3" d="M145.467 287.48L159.297 281.298L198.105 303.705C197.576 304.222 196.979 304.575 196.436 304.63L178.745 306.383C178.484 306.408 178.251 306.356 178.054 306.241L177.978 306.198C176.412 305.288 145.471 287.484 145.467 287.48Z" fill="white"/>
<path opacity="0.3" d="M217.534 240.204L254.682 261.736C254.529 262.119 254.336 262.457 254.096 262.711L235.7 282.128C235.162 282.698 234.443 282.826 233.793 282.559C233.767 282.548 233.668 282.494 233.51 282.406L216.709 272.739C216.658 272.709 216.62 272.688 216.62 272.688L201.002 263.701L217.534 240.204Z" fill="white"/>
<path opacity="0.4" d="M280.471 216.738L248.003 197.889L255.914 168.517L288.454 187.252C289.166 187.614 289.45 188.677 289.087 189.895L281.759 214.554C281.518 215.377 281.031 216.15 280.471 216.738Z" fill="white"/>
<path opacity="0.4" d="M281.028 127.452C281.445 127.67 281.824 128.086 282.089 128.675L288.761 143.422C289.166 144.315 289.229 145.438 289 146.389L246.656 121.943L246.656 109.449L248.519 108.733C248.519 108.733 280.475 127.16 281.028 127.452Z" fill="white"/>
<path d="M166.363 116.966C166.386 116.972 166.414 116.992 166.444 117.011C166.703 117.174 166.962 117.43 167.167 117.752L174.749 129.323C175.519 130.498 176.905 130.892 177.857 130.214C179.653 128.957 181.472 127.778 183.286 126.712C185.307 125.526 187.34 124.463 189.383 123.542C190.382 123.074 191.629 121.603 192.158 120.192L200.618 97.5033C201.146 96.0937 202.429 94.8743 203.473 94.7694L221.167 93.0151C221.409 92.9865 221.639 93.0373 221.832 93.146C221.862 93.1649 221.891 93.1847 221.921 93.2037C222.485 93.5769 222.719 94.4904 222.465 95.6116L217.677 117.395C217.333 118.935 217.916 120.421 218.953 120.816C221.538 121.789 223.89 123.153 226.02 124.866C226.971 125.622 228.439 125.676 229.345 124.859L246.767 108.933C247.294 108.444 247.947 108.398 248.524 108.728C248.917 108.96 249.261 109.368 249.522 109.916L256.183 124.669C256.808 126.036 256.643 127.952 255.819 128.945L239.904 148.214C239.079 149.205 238.592 151.326 238.726 152.961C239.022 156.597 239.018 160.443 238.704 164.488C238.594 166.115 239.296 167.457 240.363 167.521L255.38 168.361C256.447 168.427 256.943 169.666 256.525 171.14L249.184 195.797C248.752 197.279 247.551 198.671 246.516 198.918L229.61 202.995C228.576 203.244 227.223 204.501 226.58 205.774C224.134 210.682 221.39 215.393 218.426 219.881C217.681 221.011 217.414 223.132 217.862 224.641L222.269 239.571C222.716 241.079 222.376 243.04 221.526 243.954L203.122 263.372C202.27 264.287 200.944 264.059 200.183 262.898L192.592 251.313C191.822 250.138 190.445 249.758 189.484 250.422C185.69 253.091 181.82 255.342 177.966 257.108C176.944 257.57 175.699 259.043 175.183 260.444L166.711 283.142C166.196 284.544 164.912 285.762 163.856 285.876L146.175 287.623C145.92 287.659 145.703 287.6 145.512 287.491C145.497 287.499 145.497 287.499 145.489 287.485C145.466 287.479 145.459 287.466 145.45 287.451C145.279 287.347 145.144 287.205 145.04 287.026L145.032 287.011C144.761 286.542 144.691 285.847 144.862 285.03L149.671 263.253C149.999 261.719 149.432 260.226 148.394 259.832C145.802 258.846 143.45 257.481 141.329 255.781C140.369 255.01 138.889 254.963 138.004 255.788L120.569 271.723C120.047 272.189 119.43 272.234 118.869 271.932C118.846 271.926 118.839 271.913 118.818 271.906C118.432 271.686 118.073 271.286 117.827 270.73L111.154 255.987C110.544 254.611 110.706 252.694 111.519 251.71L127.426 232.428C128.251 231.437 128.738 229.316 128.617 227.675C128.462 225.815 128.389 223.871 128.392 221.901C128.401 220.036 128.487 218.111 128.624 216.156C128.755 214.535 128.047 213.179 126.987 213.127L111.948 212.282C111.755 212.265 111.581 212.219 111.432 212.121C110.738 211.748 110.469 210.709 110.826 209.509L118.159 184.838C118.585 183.379 119.8 181.978 120.834 181.73L137.725 177.661C138.774 177.404 140.117 176.133 140.749 174.866C143.195 169.959 145.952 165.241 148.923 160.765C149.668 159.636 149.92 157.522 149.465 156.001L145.065 141.085C144.609 139.564 144.949 137.603 145.821 136.693L164.204 117.268C164.816 116.644 165.645 116.552 166.363 116.966ZM152.49 218.216C152.573 218.518 152.647 218.805 152.744 219.099C152.799 219.324 152.875 219.519 152.939 219.722C153.094 220.183 153.265 220.638 153.449 221.083C153.663 221.612 153.899 222.11 154.142 222.604C154.295 222.915 154.458 223.219 154.625 223.515C154.705 223.657 154.785 223.797 154.867 223.935C158.238 229.626 163.892 232.716 171.29 231.974C174.058 231.701 176.894 230.91 179.71 229.671C181.116 229.079 182.507 228.368 183.894 227.55C196.496 220.163 208.417 204.616 213.554 187.358C215.21 181.784 216.003 176.562 216.021 171.845C216.034 170.273 215.955 168.737 215.783 167.292C215.308 162.932 214.076 159.173 212.169 156.189C212.145 156.147 212.13 156.12 212.091 156.086C211.996 155.921 211.885 155.763 211.777 155.605C211.659 155.434 211.551 155.276 211.427 155.126C211.309 154.954 211.193 154.782 211.048 154.627C207.609 150.266 202.494 148.031 196.051 148.662C179.541 150.303 160.614 170.279 153.787 193.278C150.924 202.916 150.636 211.562 152.49 218.216Z" fill="white"/>
</svg>
