<svg width="400" height="400" viewBox="0 0 400 400" fill="none" xmlns="http://www.w3.org/2000/svg">
<circle cx="200" cy="200" r="139" fill="#EDF3FB"/>
<g clip-path="url(#clip0_4038_5292)">
<rect x="108.907" y="167.158" width="156.685" height="156.685" stroke="#61BFAD"/>
<rect x="76.4571" y="245.5" width="156.685" height="156.685" transform="rotate(-45 76.4571 245.5)" stroke="#61BFAD"/>
<rect x="108.407" y="245.5" width="157.685" height="0.98553" fill="#61BFAD"/>
<rect x="186.756" y="324.835" width="157.685" height="0.98553" transform="rotate(-90 186.756 324.835)" fill="#61BFAD"/>
<rect x="131.152" y="301.395" width="157.685" height="0.98553" transform="rotate(-45 131.152 301.395)" fill="#61BFAD"/>
<rect width="157.685" height="0.98553" transform="matrix(-0.707107 -0.707107 -0.707107 0.707107 243.348 301.395)" fill="#61BFAD"/>
</g>
<path d="M274.126 106.236C274.126 106.221 274.141 106.221 274.141 106.221L274.049 106.16L261.617 98.9984C260.898 98.6772 259.843 98.9831 258.573 99.9467C247.004 108.801 231.456 111.545 218.742 107.501C217.93 106.744 217.15 105.944 216.416 105.089C216.339 104.997 216.263 104.906 216.186 104.829H216.171C215.743 104.355 215.315 104.003 214.886 103.774L214.672 103.651L188.377 96.251C186.954 95.578 185.669 96.251 184.813 98.3618C172.791 128.234 145.35 158.825 128.265 166.396C126.995 166.962 125.818 167.834 124.9 168.905C123.692 170.297 122.942 172.01 123.003 173.8L141.134 240.803C141.134 260.183 149.317 280.648 166.005 290.606L178.88 298.043L179.11 298.166C185.503 301.821 193.105 303.962 201.931 303.962C203.721 303.962 205.541 303.886 207.422 303.702C210.573 303.397 214.947 301.118 217.15 298.839C254.487 260.278 272.642 208.09 272.642 179.211L275.105 109.051C275.166 107.536 274.799 106.603 274.126 106.236Z" fill="white"/>
<path d="M275.105 109.051L272.642 179.212C272.642 208.09 254.486 260.278 217.15 298.838C214.947 301.117 210.573 303.396 207.422 303.702C205.541 303.886 203.72 303.962 201.931 303.962C193.105 303.962 185.503 301.821 179.11 298.165L178.88 298.043L178.437 297.768C161.749 287.81 153.566 267.345 153.566 247.965L151.104 180.894C151.042 179.105 151.792 177.391 153 176C153.918 174.929 155.096 174.057 156.365 173.491C173.45 165.92 199.071 135.65 211.093 105.778C211.949 103.667 213.25 102.978 214.672 103.651L214.886 103.774C215.314 104.003 215.743 104.355 216.171 104.829H216.186C216.263 104.906 216.339 104.997 216.416 105.089C229.172 119.941 254.257 119.926 271.006 107.108C272.275 106.145 273.331 105.839 274.049 106.16L274.141 106.221C274.141 106.221 274.126 106.221 274.126 106.236C274.799 106.604 275.166 107.537 275.105 109.051Z" fill="#D9D9D9"/>
<path d="M276.634 109.05L274.172 179.211C274.172 208.089 256.016 260.278 218.679 298.838C216.477 301.117 212.102 303.396 208.951 303.702C207.07 303.885 205.25 303.962 203.46 303.962C194.635 303.962 187.033 301.82 180.639 298.165L180.41 298.042L179.966 297.767C163.279 287.81 155.096 267.344 155.096 247.965L152.633 180.894C152.572 179.104 153.321 177.391 154.53 175.999C155.448 174.928 156.625 174.057 157.895 173.491C174.98 165.919 200.6 135.649 212.622 105.777C213.479 103.666 214.779 102.978 216.202 103.651L216.416 103.773C216.844 104.003 217.272 104.355 217.701 104.829H217.716C217.792 104.905 217.869 104.997 217.945 105.089C230.702 119.941 255.787 119.925 272.535 107.108C273.805 106.144 274.86 105.838 275.579 106.159L275.671 106.221C275.671 106.221 275.655 106.221 275.655 106.236C276.328 106.603 276.696 107.536 276.634 109.05Z" fill="white"/>
<path opacity="0.4" d="M274.056 106.152C273.337 105.831 272.281 106.137 271.012 107.101C255.242 119.169 232.069 119.888 218.777 107.498C231.488 111.552 247.013 108.798 258.577 99.9423C259.846 98.9787 260.902 98.6728 261.62 98.994L274.056 106.152Z" fill="white"/>
<path opacity="0.4" d="M214.678 103.644C213.256 102.971 211.956 103.659 211.099 105.77C199.077 135.642 173.457 165.912 156.371 173.483C155.102 174.049 153.924 174.921 153.006 175.992C152.685 176.359 152.395 176.756 152.15 177.169L124.135 171.198C124.38 170.8 124.655 170.403 124.977 170.035C125.145 169.837 125.328 169.653 125.527 169.47L125.542 169.454C125.619 169.393 125.68 169.317 125.757 169.24C125.833 169.179 125.894 169.118 125.971 169.041C126.674 168.429 127.485 167.894 128.342 167.527C145.427 159.956 172.79 128.234 184.813 98.3618C185.669 96.251 186.954 95.578 188.377 96.251L214.678 103.644Z" fill="white"/>
<path d="M141.137 168.236C141.198 168.16 141.275 168.099 141.351 168.038C141.275 168.114 141.214 168.191 141.137 168.252C141.137 168.252 141.12 168.236 141.137 168.236Z" fill="white"/>
<path opacity="0.15" d="M141.351 168.038C141.275 168.114 141.214 168.191 141.137 168.252C141.137 168.252 141.122 168.236 141.137 168.236C141.197 168.16 141.273 168.099 141.351 168.038Z" fill="black"/>
<path d="M179.116 298.158L178.887 298.05C178.887 298.05 182.696 300.559 166.008 290.602C137.839 278.538 126.619 253.337 123.371 174.258C123.325 172.943 123.05 171.566 123.753 170.435L152.15 177.17C151.462 178.301 151.064 179.571 151.11 180.886L153.573 247.957C153.573 267.337 161.756 287.802 178.443 297.76L178.887 298.035L179.116 298.158Z" fill="#DBDBDB"/>
<path d="M223.045 236.444L203.167 247.921L206.247 211.962C203.869 210.705 202.354 207.612 202.354 203.17C202.354 195.252 207.168 186.055 213.107 182.625C219.045 179.198 223.859 182.836 223.859 190.755C223.859 195.197 222.343 200.039 219.966 204.042L223.045 236.444Z" fill="#142A53"/>
<path d="M223.045 236.444L205.04 226.049L203.167 247.922L223.045 236.444Z" fill="#0F203E"/>
<path d="M213.107 182.625C209.222 184.869 205.828 189.585 203.937 194.793L219.966 204.047V204.042C222.344 200.039 223.858 195.197 223.858 190.755C223.858 182.836 219.043 179.198 213.107 182.625Z" fill="#102242"/>
<defs>
<clipPath id="clip0_4038_5292">
<rect width="226" height="223" fill="white" transform="translate(75 134)"/>
</clipPath>
</defs>
</svg>
